<?xml version="1.0" encoding="UTF-8"?>
<svg width="16px" height="16px" viewBox="0 0 16 16" version="1.1" xmlns="http://www.w3.org/2000/svg" xmlns:xlink="http://www.w3.org/1999/xlink">
    <!-- Generator: Sketch 52.3 (67297) - http://www.bohemiancoding.com/sketch -->
    <title>i-zoeken</title>
    <desc>Created with Sketch.</desc>
    <g id="Intern-Dashboard" stroke="none" stroke-width="1" fill="none" fill-rule="evenodd" stroke-linecap="round" stroke-linejoin="round">
        <g id="Iconen" transform="translate(-361.000000, -195.000000)" stroke-width="1.5">
            <g id="i-zoeken" transform="translate(362.000000, 196.000000)">
                <g id="Vector">
                    <path d="M6.2492676,2.94868117 C7.30018741,2.83732428 8.30027336,3.42649386 8.7122676,4.3996812 M10.6122676,10.617681 L14.0002676,13.999681" id="Vector-6" stroke="#1A2030"></path>
                    <path d="M1.80524206,10.7136917 C0.940395785,9.83061093 0.353810953,8.71307412 0.118241995,7.49969121 C-0.119275386,6.28291175 0.00268999825,5.02329761 0.46924198,3.87469115 C0.931807122,2.73253061 1.72153315,1.75250511 2.73924206,1.05769126 C4.80409109,-0.352563754 7.52239254,-0.352563754 9.58724219,1.05769126 C10.6049512,1.75250511 11.394677,2.73253061 11.8572419,3.87469115 C12.3237944,5.02329761 12.4457588,6.28291175 12.2082418,7.49969121 C11.9726729,8.71307412 11.3860883,9.83061093 10.5212421,10.7136917 C9.37589476,11.8890377 7.80435741,12.551921 6.163242,12.551921 C4.52212696,12.551921 2.95058937,11.8890377 1.80524206,10.7136917 Z" id="Vector-5" stroke="#26A9E0"></path>
                </g>
            </g>
        </g>
    </g>
</svg>