<?xml version="1.0" encoding="UTF-8"?>
<svg width="18px" height="10px" viewBox="0 0 18 10" version="1.1" xmlns="http://www.w3.org/2000/svg" xmlns:xlink="http://www.w3.org/1999/xlink">
    <!-- Generator: Sketch 52.3 (67297) - http://www.bohemiancoding.com/sketch -->
    <title>Path</title>
    <desc>Created with Sketch.</desc>
    <g id="Email-handtekening" stroke="none" stroke-width="1" fill="none" fill-rule="evenodd">
        <g id="Simply-Translate" transform="translate(-100.000000, -1547.000000)" fill="#929496">
            <g id="Group-5" transform="translate(80.000000, 1308.000000)">
                <g id="Group-11" transform="translate(0.000000, 47.000000)">
                    <g id="Group-10" transform="translate(0.000000, 130.000000)">
                        <g id="Group" transform="translate(20.000000, 57.000000)">
                            <path d="M8.99778699,1 C8.6008062,1 8.2798159,1.32044982 8.2798159,1.71680529 L8.2798159,16.5629322 L5.2221255,13.5312938 C4.93916519,13.2530065 4.4872805,13.2530065 4.20853287,13.5355104 C3.92978525,13.8180144 3.92979297,14.2691622 4.21275637,14.5474572 L8.49108258,18.7933932 C8.63045253,18.9325369 8.81205358,19 8.99787889,19 C9.18370421,19 9.36530526,18.9325369 9.50467521,18.7933932 L13.7872489,14.5474572 C14.0702092,14.2691699 14.0702092,13.8138054 13.7914723,13.5355104 C13.5127324,13.2530096 13.0566273,13.2530096 12.7778797,13.5312938 L9.7159805,16.5629322 L9.7159805,1.71680529 C9.7159805,1.32467108 9.3950095,1 8.99800941,1 L8.99778699,1 Z" id="Path" transform="translate(9.000000, 10.000000) rotate(-90.000000) translate(-9.000000, -10.000000) "></path>
                        </g>
                    </g>
                </g>
            </g>
        </g>
    </g>
</svg>