<?xml version="1.0" encoding="UTF-8"?>
<svg width="21px" height="18px" viewBox="0 0 21 18" version="1.1" xmlns="http://www.w3.org/2000/svg" xmlns:xlink="http://www.w3.org/1999/xlink">
    <!-- Generator: Sketch 52.3 (67297) - http://www.bohemiancoding.com/sketch -->
    <title>i-hulp-passive</title>
    <desc>Created with Sketch.</desc>
    <g id="Intern-Dashboard" stroke="none" stroke-width="1" fill="none" fill-rule="evenodd">
        <g id="Iconen" transform="translate(-101.000000, -373.000000)">
            <g id="i-hulp-passive" transform="translate(101.000000, 373.000000)">
                <rect id="Rectangle-Copy-5" fill-opacity="0.01" fill="#FFFFFF" x="0.981422425" y="0.428708418" width="20" height="17"></rect>
                <path d="M4,10.0000004 L4,8.00000002 C4,4.68629144 6.68629144,2 10,2 L12.0000004,2 C15.3137086,2 18,4.68629144 18,8.00000002 L18,10.0000004 C18,13.3137086 15.3137086,16 12.0000004,16 L10,16 C6.68629144,16 4,13.3137086 4,10.0000004 Z" id="Vector-53" stroke="#929496" stroke-width="1.5" stroke-linecap="round" stroke-linejoin="round"></path>
                <path d="M9,6.63900013 C9,5.54900014 9.90000003,4.94900009 11.247,5.00000009 C12.2190916,5.03371103 12.9920147,5.82735703 13.0000002,6.8000001 C13.0470215,7.70953513 12.615985,8.57767372 11.8630001,9.09000031 C11.2229627,9.50000902 10.8846812,10.248697 11,11.0000003" id="_" stroke="#929496" stroke-width="1.5" stroke-linecap="round" stroke-linejoin="round"></path>
                <g id="Vector-54" transform="translate(10.000000, 12.000000)" fill-rule="nonzero">
                    <path d="M1,1.5 C0.72430003,1.5 0.5,1.2757 0.5,1 C0.5,0.72430003 0.72430003,0.5 1,0.5 C1.2757,0.5 1.5,0.72430003 1.5,1 C1.5,1.2757 1.2757,1.5 1,1.5 Z" id="Path" fill="#000000"></path>
                    <path d="M1,0 C1.55228,0 2,0.44772006 2,1 C2,1.55228 1.55228,2 1,2 C0.44772006,2 0,1.55228 0,1 C0,0.44772006 0.44772006,0 1,0 Z" id="Path" fill="#929496"></path>
                </g>
            </g>
        </g>
    </g>
</svg>