<?xml version="1.0" encoding="UTF-8"?>
<svg width="21px" height="18px" viewBox="0 0 21 18" version="1.1" xmlns="http://www.w3.org/2000/svg" xmlns:xlink="http://www.w3.org/1999/xlink">
    <!-- Generator: Sketch 52.3 (67297) - http://www.bohemiancoding.com/sketch -->
    <title>i-leads-hover-active</title>
    <desc>Created with Sketch.</desc>
    <g id="Intern-Dashboard" stroke="none" stroke-width="1" fill="none" fill-rule="evenodd">
        <g id="Iconen" transform="translate(-151.000000, -196.000000)">
            <g id="i-leads-hover-active" transform="translate(151.000000, 196.000000)">
                <rect id="Rectangle-Copy" fill-opacity="0.01" fill="#FFFFFF" x="0.330808694" y="0.408045737" width="20" height="17"></rect>
                <path d="M5,14.0000002 C8.55820916,11.3413066 13.4417908,11.3413066 17,14.0000002" id="Vector-39-path" stroke="#26A9E0" stroke-width="1.5" stroke-linecap="round" stroke-linejoin="round"></path>
                <path d="M3,6 L5,6 M3,9 L5,9 M3,12 L5,12" id="Vector-39" stroke="#1A2030" stroke-width="1.5" stroke-linecap="round" stroke-linejoin="round"></path>
                <path d="M5,4.0000001 L5,14.0000002 C5,15.1045698 5.89543052,16 7.00000004,16 L14.9999996,16 C16.1045692,16 17,15.1045698 17,14.0000002 L17,4.0000001 C17,2.89543048 16.1045692,2 14.9999996,2 L7.00000004,2 C5.89543052,2 5,2.89543048 5,4.0000001 Z" id="Vector-37" stroke="#26A9E0" stroke-width="1.5" stroke-linecap="round" stroke-linejoin="round"></path>
                <path d="M13,7 C13,8.10456944 12.1045694,9 11,9 C9.89543052,9 9,8.10456944 9,7 C9,5.89543052 9.89543052,5 11,5 C12.1045694,5 13,5.89543052 13,7 Z" id="Vector-38" stroke="#1A2030" stroke-width="1.5" stroke-linecap="round" stroke-linejoin="round"></path>
            </g>
        </g>
    </g>
</svg>