<?xml version="1.0" encoding="UTF-8"?>
<svg width="21px" height="18px" viewBox="0 0 21 18" version="1.1" xmlns="http://www.w3.org/2000/svg" xmlns:xlink="http://www.w3.org/1999/xlink">
    <!-- Generator: Sketch 52.3 (67297) - http://www.bohemiancoding.com/sketch -->
    <title>i-offertes-hover-active</title>
    <desc>Created with Sketch.</desc>
    <g id="Intern-Dashboard" stroke="none" stroke-width="1" fill="none" fill-rule="evenodd">
        <g id="Iconen" transform="translate(-151.000000, -239.000000)">
            <g id="i-offertes-hover-active" transform="translate(151.000000, 239.000000)">
                <rect id="Rectangle-Copy-2" fill-opacity="0.01" fill="#FFFFFF" x="0.320087039" y="0.518723927" width="20" height="17"></rect>
                <path d="M3,6 L6,6 M3,9 L6,9 M3,12 L6,12 M5,14.0000002 L5,4.0000001 C5,2.89543048 5.89543052,2 7.00000004,2 L14.9999996,2 C16.1045692,2 17,2.89543048 17,4.0000001 L17,14.0000002 C17,15.1045698 16.1045692,16 14.9999996,16 L7.00000004,16 C5.89543052,16 5,15.1045698 5,14.0000002 Z" id="Vector" stroke="#26A9E0" stroke-width="1.5" stroke-linecap="round" stroke-linejoin="round"></path>
                <path d="M8,6 L14,6" id="Vector-path" stroke="#1A2030" stroke-width="1.5" stroke-linecap="round" stroke-linejoin="round"></path>
                <path d="M10,9 L14,9" id="Vector-path" stroke="#1A2030" stroke-width="1.5" stroke-linecap="round" stroke-linejoin="round"></path>
                <path d="M12,12 L14,12" id="Vector-path" stroke="#1A2030" stroke-width="1.5" stroke-linecap="round" stroke-linejoin="round"></path>
            </g>
        </g>
    </g>
</svg>