<?xml version="1.0" encoding="UTF-8"?>
<svg width="16px" height="18px" viewBox="0 0 16 18" version="1.1" xmlns="http://www.w3.org/2000/svg" xmlns:xlink="http://www.w3.org/1999/xlink">
    <!-- Generator: Sketch 52.3 (67297) - http://www.bohemiancoding.com/sketch -->
    <title>i-notificatie-niet</title>
    <desc>Created with Sketch.</desc>
    <g id="Intern-Dashboard" stroke="none" stroke-width="1" fill="none" fill-rule="evenodd" stroke-linecap="round" stroke-linejoin="round">
        <g id="Iconen" transform="translate(-361.000000, -286.000000)" stroke-width="1.5">
            <g id="i-notificatie-niet" transform="translate(362.000000, 287.000000)">
                <g id="i-notificaties">
                    <g id="Vector">
                        <path d="M4.660345,13.6 C4.65804097,14.2339724 4.90306968,14.8438534 5.34336138,15.3 C5.77478172,15.7490931 6.3706192,16.002931 6.9933615,16.002931 C7.6161038,16.002931 8.21194128,15.7490931 8.64336157,15.3 C9.0836533,14.8438534 9.32868209,14.2339724 9.326378,13.6" id="Vector-9-path" stroke="#1A2030"></path>
                        <path d="M6.9943614,2.4 L6.9943614,0" id="Vector-9-path" stroke="#1A2030"></path>
                        <path d="M6.9943614,2.4 C3.8694125,2.475328 1.39626108,5.06797507 1.46836154,8.19299952 L1.46836154,10.5100001 C0.645606276,10.5518769 1.00613959e-16,11.2311794 0,12.0550003 C-1.00613959e-16,12.8788208 0.645606276,13.5581225 1.46836154,13.6 L4.66136138,13.6 M6.9943614,2.4 C10.1193101,2.475328 12.5924615,5.06797507 12.520361,8.19299952 L12.520361,10.5100001 C13.3431167,10.5518769 13.9887228,11.2311794 13.9887228,12.0550003 C13.9887228,12.8788208 13.3431167,13.5581225 12.520361,13.6 L9.32736142,13.6 M4.6593614,13.6 L9.3273614,13.6" id="Vector-9" stroke="#26A9E0"></path>
                    </g>
                </g>
            </g>
        </g>
    </g>
</svg>