<?xml version="1.0" encoding="UTF-8"?>
<svg width="7px" height="11px" viewBox="0 0 7 11" version="1.1" xmlns="http://www.w3.org/2000/svg" xmlns:xlink="http://www.w3.org/1999/xlink">
    <!-- Generator: Sketch 52.3 (67297) - http://www.bohemiancoding.com/sketch -->
    <title>i-activecampaign-wit</title>
    <desc>Created with Sketch.</desc>
    <g id="Intern-Dashboard" stroke="none" stroke-width="1" fill="none" fill-rule="evenodd">
        <g id="Iconen" transform="translate(-717.000000, -525.000000)" fill="#FFFFFF" fill-rule="nonzero">
            <g id="i-activecampaign-wit" transform="translate(717.000000, 525.000000)">
                <path d="M0.0333617532,-2.84217094e-14 L0.113297835,0.0575230424 C0.362024571,0.234829361 6.20000107,4.40321971 6.36284607,4.52807854 C6.59340551,4.69388026 6.71099744,4.89893298 6.71099744,5.13680769 L6.71099744,5.2548991 C6.70835493,5.43863446 6.64394362,5.6971498 6.36284607,5.91336876 L6.36185513,5.91404551 C6.22642623,6.01318815 4.84802429,6.99141823 3.38869533,8.02750976 C3.26020964,8.11871762 3.13025772,8.21096697 3.00000101,8.30343545 L2.91313079,8.36510453 C1.62426403,9.28007624 0.330826376,10.1986019 0.155908392,10.3253861 L0.155908392,10.4901727 L0.0604475331,10.3257245 C0.0558231319,10.3172652 0.0515290446,10.3101594 0.0564837606,10.2986548 L0.0535109311,10.2986548 L0.0535109311,9.43851614 C0.0535109311,9.14514864 0.0852211123,9.00404797 0.403974497,8.78647554 C0.539753531,8.69708474 1.70238593,7.87465651 2.88334652,7.0375341 L3.02230679,6.93902463 C4.11053844,6.16751487 5.18074666,5.40745021 5.44358114,5.22106203 C4.88865296,4.82618326 0.728673543,1.86780702 0.443612225,1.65395665 L0.409920157,1.62891721 C0.199179577,1.47258989 0.0333617532,1.3494229 0.0333617532,1.02391015 L0.0333617532,-2.84217094e-14 Z M0.573095465,2.99052146 C0.854523324,3.17594867 3.57631389,5.11075314 3.60373,5.13071702 L3.66549878,5.17436684 L3.60273905,5.21733995 C3.60273905,5.21733995 3.41875394,5.34287553 3.21461963,5.48905173 C3.03988332,5.62033962 2.8763777,5.68598355 2.71386301,5.68598355 C2.56951563,5.68598355 2.4264895,5.63455119 2.27586614,5.53202482 C2.11541262,5.42229794 1.66341623,5.10287803 1.20589465,4.77838514 L1.14349796,4.73412388 C0.582103005,4.33583547 0.0319678266,3.94391512 0.0218007497,3.93660632 L-2.84217094e-14,3.92104126 L-2.84217094e-14,3.26392511 C-2.84217094e-14,3.1130117 0.0634203627,2.99356681 0.174736312,2.93570539 C0.293979807,2.87344515 0.442951595,2.89374739 0.573095465,2.99052146 Z" id="Shape"></path>
            </g>
        </g>
    </g>
</svg>