<?xml version="1.0" encoding="UTF-8"?>
<svg width="13px" height="14px" viewBox="0 0 13 14" version="1.1" xmlns="http://www.w3.org/2000/svg" xmlns:xlink="http://www.w3.org/1999/xlink">
    <!-- Generator: Sketch 52.3 (67297) - http://www.bohemiancoding.com/sketch -->
    <title>i-date-picker-licht</title>
    <desc>Created with Sketch.</desc>
    <g id="Intern-Dashboard" stroke="none" stroke-width="1" fill="none" fill-rule="evenodd" stroke-linecap="round" stroke-linejoin="round">
        <g id="Iconen" transform="translate(-1031.000000, -746.000000)" stroke="#929496" stroke-width="1.125">
            <g id="i-date-picker-licht" transform="translate(1032.000000, 746.000000)">
                <path d="M0.78571423,9.24999967 C0.78571423,10.9068536 2.19281928,12.2499995 3.92857131,12.2499995 L8.6428567,12.2499995 C10.3786083,12.2499995 11.7857134,10.9068536 11.7857134,9.24999967 L11.7857134,4.74999966 C11.7857134,3.09314533 10.3786083,1.74999951 8.6428567,1.74999951 L3.92857131,1.74999951 C2.19281928,1.74999951 0.78571423,3.09314533 0.78571423,4.74999966 M0.78571423,9.24999951 L0.78571423,4.74999951 M0.78571423,9.24999951 L1.57142846,9.24999951 M0.78571423,9.24999951 L-0.78571423,9.24999951 M0.78571423,4.74999951 L1.57142846,4.74999951 M0.78571423,4.74999951 L-0.78571423,4.74999951" id="Vector-5" transform="translate(5.500000, 7.000000) rotate(90.000000) translate(-5.500000, -7.000000) "></path>
                <polyline id="Vector-6" points="2.35714269 7.75 3.92857115 10 8.64285653 6.25"></polyline>
            </g>
        </g>
    </g>
</svg>