<?xml version="1.0" encoding="UTF-8"?>
<svg width="16px" height="17px" viewBox="0 0 16 17" version="1.1" xmlns="http://www.w3.org/2000/svg" xmlns:xlink="http://www.w3.org/1999/xlink">
    <!-- Generator: Sketch 52.3 (67297) - http://www.bohemiancoding.com/sketch -->
    <title>i-project-bezig</title>
    <desc>Created with Sketch.</desc>
    <g id="Intern-Dashboard" stroke="none" stroke-width="1" fill="none" fill-rule="evenodd" stroke-linecap="round" stroke-linejoin="round">
        <g id="Iconen" transform="translate(-652.000000, -211.000000)" stroke="#F9BA35" stroke-width="1.5">
            <g id="i-project-bezig" transform="translate(653.000000, 212.000000)">
                <g id="Vector">
                    <path d="M12.1999755,0.127582315 L13.765976,1.37458237 C13.9172109,1.51691352 14.0024642,1.71571347 14.0013267,1.92338837 C14.0001883,2.13106327 13.9127612,2.32891708 13.7599757,2.46958231 L12.5699757,3.89358239 L8.52097567,8.72258221 C8.45014942,8.80371091 8.35575592,8.86069651 8.25097556,8.88558231 L6.15097565,9.36158229 C5.87546533,9.37536577 5.63561208,9.1751259 5.5999756,8.9015824 L5.5999756,6.74358243 C5.60712343,6.63954599 5.64903444,6.54093197 5.7189756,6.46358244 L9.69297567,1.97058237 L11.0569758,0.341582306 C11.3268279,-0.0121376592 11.8204353,-0.104554112 12.1999755,0.127582315 Z" id="Vector-8"></path>
                    <path d="M6.5330085,1.8685913 L3.73300849,1.8685913 C1.66674817,1.87355621 -0.00441466312,3.55232943 8.76108243e-06,5.61859149 L8.76108243e-06,11.2435915 C-0.00441466312,13.3098533 1.66674817,14.9886268 3.73300849,14.9935913 L9.33300812,14.9935913 C11.3992688,14.9886268 13.0704307,13.3098533 13.0660084,11.2435915 L13.0660084,7.49359132 M9.693008,1.9705913 C10.015008,2.75059128 11.041008,4.22759144 12.570008,3.8895913 M2.8000088,12.1815913 L10.2670088,12.1815913" id="Vector-9"></path>
                </g>
            </g>
        </g>
    </g>
</svg>