<?xml version="1.0" encoding="UTF-8"?>
<svg width="22px" height="14px" viewBox="0 0 22 14" version="1.1" xmlns="http://www.w3.org/2000/svg" xmlns:xlink="http://www.w3.org/1999/xlink">
    <!-- Generator: Sketch 52.3 (67297) - http://www.bohemiancoding.com/sketch -->
    <title>i-project-ter-uitzetting</title>
    <desc>Created with Sketch.</desc>
    <g id="Intern-Dashboard" stroke="none" stroke-width="1" fill="none" fill-rule="evenodd" stroke-linecap="round" stroke-linejoin="round">
        <g id="Iconen" transform="translate(-649.000000, -182.000000)" stroke="#F97435" stroke-width="1.5">
            <g id="i-project-ter-uitzetting" transform="translate(650.000000, 183.000000)">
                <path d="M1,3.75021274 L13,1 L13,11.0832622 L8.1176758,9.904357 C8.1987712,10.9632031 7.3127524,11.8889039 6.1118644,12 C4.88883328,11.8836679 3.99665908,10.9285245 4.1050846,9.8515823 L4.1050846,9.11870323 L1,8.3330499 L1,3.75021274 Z" id="Vector-57"></path>
                <path d="M20,5.49171429 L18.0882051,5.49171429 M17.76,10.0611429 L16.4102564,8.91857143 M17.7620513,0.923142857 L16.4102564,2.06571429 M13.2205128,11.0768571 L13.2205128,12 M13.2205128,0.923142857 L13.2205128,0 M0.512820513,3.69257143 L0.512820513,2.76942857 M0.512820513,9.23057143 L0.512820513,8.30742857 M3.80102564,9.09857143 L8.05025641,9.88971429" id="Vector-58"></path>
            </g>
        </g>
    </g>
</svg>