<?xml version="1.0" encoding="UTF-8"?>
<svg width="14px" height="16px" viewBox="0 0 14 16" version="1.1" xmlns="http://www.w3.org/2000/svg" xmlns:xlink="http://www.w3.org/1999/xlink">
    <!-- Generator: Sketch 52.3 (67297) - http://www.bohemiancoding.com/sketch -->
    <title>i-project-wordt-voorbereid</title>
    <desc>Created with Sketch.</desc>
    <g id="Intern-Dashboard" stroke="none" stroke-width="1" fill="none" fill-rule="evenodd" stroke-linecap="round" stroke-linejoin="round">
        <g id="Iconen" transform="translate(-653.000000, -153.000000)" stroke="#1A2030" stroke-width="1.5">
            <g id="i-project-wordt-voorbereid" transform="translate(654.000000, 154.000000)">
                <path d="M0.5,7.553824 C0.528333497,7.95829942 0.877279484,8.26440795 1.28199998,8.23982406 L10.7170002,8.23982406 C10.9807727,8.27117598 11.2390303,8.14788222 11.3805046,7.92306171 C11.5219784,7.69824179 11.5213928,7.41206305 11.379,7.18782429 L9.443,4.48782409 C9.28279807,4.2704889 9.28279807,3.97415885 9.443,3.75682391 L11.379,1.05682388 C11.5213928,0.832584871 11.5219784,0.546406247 11.3805046,0.321586181 C11.2390303,0.0967661144 10.9807727,-0.0265281179 10.7170002,0.00482391469 L1.28199998,0.00482391469 C0.877279484,-0.0197600245 0.528333497,0.286348621 0.5,0.69082392 L0.5,7.553824 Z M0.5,7.553824 L0.5,11.2986909 L0.5,14.004824" id="Vector-37"></path>
            </g>
        </g>
    </g>
</svg>