<?xml version="1.0" encoding="UTF-8"?>
<svg width="14px" height="17px" viewBox="0 0 14 17" version="1.1" xmlns="http://www.w3.org/2000/svg" xmlns:xlink="http://www.w3.org/1999/xlink">
    <!-- Generator: Sketch 52.3 (67297) - http://www.bohemiancoding.com/sketch -->
    <title>i-project-wachten-op-goedkeuring</title>
    <desc>Created with Sketch.</desc>
    <g id="Intern-Dashboard" stroke="none" stroke-width="1" fill="none" fill-rule="evenodd" stroke-linecap="round" stroke-linejoin="round">
        <g id="Iconen" transform="translate(-653.000000, -298.000000)" stroke="#CA51A2" stroke-width="1.5">
            <g id="i-project-wachten-op-goedkeuring" transform="translate(654.000000, 299.000000)">
                <path d="M12,14.5 L0,14.5 M1.71399995,14.5 L1.71399995,11.4380001 C1.68315979,10.6886612 2.06757598,9.98325748 2.7139999,9.60299991 L4.90799977,8.49099989 C5.59317565,8.13641271 6.40782385,8.13641271 7.09299974,8.49099989 L9.28399976,9.59999993 C9.93042339,9.98025749 10.3148398,10.6856612 10.2839994,11.4349997 L10.2839994,14.5 M10.2839995,0.5 L10.2839995,4 C10.3148391,4.7493388 9.93042366,5.45474225 9.28399954,5.83500011 L7.09200009,6.9459998 C6.40682401,7.30058691 5.59217573,7.30058691 4.90699983,6.9459998 L2.71599998,5.83500011 C2.06957606,5.45474225 1.68515989,4.7493388 1.71600005,4 L1.71600005,0.5 M10.287,0.5 L12,0.5 M10.286,0.5 L1.714,0.5 M1.714,0.5 L0,0.5 M4.286,4.5 L6,5.5 L7.714,4.5" id="Vector-24"></path>
            </g>
        </g>
    </g>
</svg>