<?xml version="1.0" encoding="UTF-8"?>
<svg width="165px" height="44px" viewBox="0 0 165 44" version="1.1" xmlns="http://www.w3.org/2000/svg" xmlns:xlink="http://www.w3.org/1999/xlink">
    <!-- Generator: Sketch 52.3 (67297) - http://www.bohemiancoding.com/sketch -->
    <title>linguatech-logo</title>
    <desc>Created with Sketch.</desc>
    <g id="Email-handtekening" stroke="none" stroke-width="1" fill="none" fill-rule="evenodd">
        <g id="Linguatech" transform="translate(-79.000000, -1444.000000)">
            <g id="Group-11" transform="translate(74.000000, 1310.000000)">
                <g id="linguatech-logo" transform="translate(0.000000, 130.000000)">
                    <g id="Logo" transform="translate(47.271175, 12.244898)" font-size="24.2999997" letter-spacing="-0.485999985" line-spacing="24.2999997">
                        <g id="Tekst">
                            <g id="Group-2" fill="#0460F4" font-family="DMSans-Bold, DM Sans" font-weight="bold">
                                <text id="Lingua">
                                    <tspan x="0" y="24.1227271">Lingu</tspan>
                                    <tspan x="60.8228992" y="24.1227271">a</tspan>
                                </text>
                            </g>
                            <g id="Group-2-Copy" transform="translate(74.561750, 0.000000)" fill="#4388F7" font-family="DMSans-Regular, DM Sans" font-weight="normal">
                                <text id="tech">
                                    <tspan x="0.24366585" y="24.1227271">tec</tspan>
                                    <tspan x="35.5272654" y="24.1227271">h</tspan>
                                </text>
                            </g>
                        </g>
                    </g>
                    <g id="Icoon">
                        <g id="Data" transform="translate(21.575352, 27.970404)" stroke="#0460F4">
                            <path d="M0.231891693,0.36843495 C1.6602388,1.97264188 3.32130435,3.20695155 5.21508834,4.07136396 C7.10887233,4.93577637 9.2470117,5.35155052 11.6295065,5.3186864" id="Path-3" stroke-width="1.45799998"></path>
                            <ellipse id="Oval" stroke-width="0.971999987" fill="#BDD5FC" cx="12.9862822" cy="5.26638974" rx="1.25842598" ry="1.26946325"></ellipse>
                        </g>
                        <g id="Data" transform="translate(16.314536, 29.084342)" stroke="#0460F4">
                            <path d="M0.12802263,0.103977237 C3.3053379,3.04755571 6.18095987,5.23191685 8.75488853,6.65706066 C11.3288172,8.08220448 14.1607544,9.07620982 17.2507002,9.63907668" id="Path-4" stroke-width="1.45799998"></path>
                            <ellipse id="Oval-Copy" stroke-width="0.971999987" fill="#BDD5FC" cx="18.74888" cy="9.90149256" rx="1.25842598" ry="1.26946325"></ellipse>
                        </g>
                        <g id="Data" transform="translate(13.330807, 31.300861)" stroke="#0460F4">
                            <path d="M3.55271368e-15,0.0627083077 C1.11835631,1.36884056 2.26271054,2.51133739 3.43306269,3.4901988 C4.60341484,4.46906021 5.76462018,5.24079783 6.91667872,5.80541165" id="Path-5" stroke-width="1.45799998"></path>
                            <ellipse id="Oval-Copy-2" stroke-width="0.971999987" fill="#BDD5FC" cx="8.09568701" cy="6.61137235" rx="1.25842598" ry="1.26946325"></ellipse>
                        </g>
                        <g id="Data" transform="translate(11.398784, 34.275744)" stroke="#0460F4">
                            <path d="M0.0946842917,0.106081362 C1.55430362,2.1667527 3.12019287,3.80646084 4.79235205,5.02520576 C6.46451123,6.24395068 8.19680118,7.0081041 9.98922189,7.31766602" id="Path-6" stroke-width="1.45799998"></path>
                            <ellipse id="Oval-Copy-3" stroke-width="0.971999987" fill="#BDD5FC" cx="11.3451002" cy="7.54033457" rx="1.25842598" ry="1.26946325"></ellipse>
                        </g>
                        <g id="Data" transform="translate(19.590901, 42.655253) rotate(-1.000000) translate(-19.590901, -42.655253) translate(11.306262, 37.757294)" stroke="#0460F4">
                            <path d="M0.169784118,0.149790142 C1.77875962,2.79669039 3.69538876,4.73739633 5.91967156,5.97190797 C8.14395435,7.20641962 10.6631226,7.8485386 13.4771764,7.89826492" id="Path-7" stroke-width="1.45799998"></path>
                            <ellipse id="Oval-Copy-4" stroke-width="0.971999987" fill="#BDD5FC" cx="14.7634669" cy="7.92058514" rx="1.25842598" ry="1.26946325"></ellipse>
                        </g>
                        <ellipse id="Oval-Copy-6" fill="#BDD5FC" cx="27.1912712" cy="19.0809869" rx="3.8986536" ry="3.91836735"></ellipse>
                        <ellipse id="Oval-Copy-7" fill="#BDD5FC" cx="15.2245896" cy="19.1035781" rx="3.8986536" ry="3.91836735"></ellipse>
                        <ellipse id="Oval" fill="#2E2E2E" cx="27.1687422" cy="18.9416652" rx="1.55060086" ry="1.56041178"></ellipse>
                        <path d="M30.3668187,20.6516101 C29.8116765,21.4952625 28.8822098,22.0027182 27.8557315,22.0027182 C26.2161992,22.0027182 24.8798741,20.6896838 24.8798741,19.0784685 C24.8798741,17.5878536 26.0482622,16.3192143 27.5522292,16.1732121 L27.5522292,15.2851646 L27.545774,15.1836735 C25.4931126,15.3422606 23.8792533,17.0232729 23.8792533,19.0783235 C23.8792533,21.2350102 25.6608725,22.9857323 27.8556208,22.9857323 C29.2886624,22.9857323 30.547452,22.2372352 31.2446074,21.1209051 L31.1025942,21.0321004 L30.3668187,20.6516101 Z" id="Path" fill="#0460F4" transform="translate(27.561930, 19.084703) scale(-1, 1) translate(-27.561930, -19.084703) "></path>
                        <ellipse id="Oval" fill="#2E2E2E" cx="15.1958884" cy="18.9432689" rx="1.55060086" ry="1.56041178"></ellipse>
                        <path d="M17.6961945,20.6516101 C17.1410523,21.4952625 16.2115856,22.0027182 15.1851073,22.0027182 C13.545575,22.0027182 12.2092499,20.6896838 12.2092499,19.0784685 C12.2092499,17.5878536 13.377638,16.3192143 14.881605,16.1732121 L14.881605,15.2851646 L14.8751498,15.1836735 C12.8224884,15.3422606 11.2086291,17.0232729 11.2086291,19.0783235 C11.2086291,21.2350102 12.9902483,22.9857323 15.1849967,22.9857323 C16.6180382,22.9857323 17.8768278,22.2372352 18.5739832,21.1209051 L18.4319701,21.0321004 L17.6961945,20.6516101 Z" id="Path" fill="#0460F4"></path>
                        <path d="M18.7137882,29.1927015 C18.7031522,29.1926526 18.6925104,29.192628 18.6818629,29.192628 C17.4396455,29.192628 16.2749674,29.5262916 15.271712,30.109311 C14.7574357,30.3898735 14.3511296,30.7106073 14.0284149,31.0351288 C12.6937182,32.2867883 11.8592191,34.070333 11.8592191,36.0497709 C11.8592191,36.9682621 12.038896,37.8445753 12.3648503,38.6451423 C12.37022,39.2913011 12.3829156,39.9900195 12.4029371,40.7412975 C8.03296595,35.0276676 5.84798039,29.0566488 5.84798039,22.8282412 C5.84798039,16.5998336 7.93133598,10.6230729 12.0980472,4.89795918 C15.1065155,7.20529506 18.1521585,8.358963 21.2349759,8.358963 C24.3177934,8.358963 27.4033817,7.20529506 30.491741,4.89795918 C32.878119,7.69786934 34.3589964,10.6431851 34.9343733,13.7339063 C35.5097502,16.8246276 34.9962772,19.0758667 33.3939543,20.4876235 C33.5592981,18.7264131 33.4121792,17.3110636 32.9525976,16.241575 C32.493016,15.1720864 31.6001306,14.3361968 30.2739414,13.7339063 L30.491741,12.0620693 C28.5415149,12.599425 26.6317646,14.1090014 24.7624899,16.5907987 C22.8932152,19.0725959 21.7173772,22.069939 21.2349759,25.5828279 C20.0163196,21.2756177 18.7797201,18.2782746 17.5251775,16.5907987 C16.2706349,14.9033228 14.4615915,13.3937463 12.0980472,12.0620693 L12.4029371,13.7339063 C10.4387878,14.9029524 9.50832896,16.8857533 9.61156056,19.682309 C9.76640796,23.8771427 14.4223965,26.5366339 18.1356622,26.9046862 C21.8489279,27.2727385 27.3676624,26.2617724 31.4019967,24.9610797 C34.091553,24.0939512 36.683697,22.334361 39.178429,19.682309 C39.9549122,22.2361914 39.830928,24.203031 38.8064765,25.5828279 C37.2697993,27.6525233 36.4560477,28.0182384 34.9343733,28.4359284 C31.9824096,29.2114498 23.068255,28.7562456 18.7137882,29.1927015 Z" id="Combined-Shape" fill="#0460F4"></path>
                    </g>
                </g>
            </g>
        </g>
    </g>
</svg>