<?xml version="1.0" encoding="UTF-8"?>
<svg width="24px" height="24px" viewBox="0 0 24 24" version="1.1" xmlns="http://www.w3.org/2000/svg" xmlns:xlink="http://www.w3.org/1999/xlink">
    <!-- Generator: Sketch 52.3 (67297) - http://www.bohemiancoding.com/sketch -->
    <title>i-analyse-snelle-telling</title>
    <desc>Created with Sketch.</desc>
    <g id="Intern-Dashboard" stroke="none" stroke-width="1" fill="none" fill-rule="evenodd" stroke-linecap="round" stroke-linejoin="round">
        <g id="Iconen" transform="translate(-942.000000, -390.000000)" stroke-width="2.09999996">
            <g id="i-analyse-snelle-telling" transform="translate(944.000000, 392.000000)">
                <path d="M4.4442856,20 C1.9897746,20 3.0059092e-16,18.0102252 0,15.555714 L0,4.4442856 C-3.0059092e-16,1.9897746 1.9897746,4.508864e-16 4.4442856,0 L15.555714,0 C18.0102252,1.5029546e-16 20,1.9897746 20,4.4442856 L20,15.555714 C20,18.0102252 18.0102252,20 15.555714,20 L4.4442856,20 Z" id="vector-3" stroke="#26A9E0"></path>
                <path d="M3.33286829,5.55565996 L3.33286829,7.77708862 C3.33286829,8.39091376 3.83047183,8.88851714 4.44429687,8.88851714 L15.5557253,8.88851714 C15.8504943,8.88851714 16.1331909,8.77142044 16.3416241,8.56298726 C16.5500576,8.35455381 16.667154,8.07185787 16.667154,7.77708862 L16.667154,5.55565996 C16.667154,4.94183495 16.1695505,4.44423143 15.5557253,4.44423143 L4.44429687,4.44423143 C3.83047183,4.44423143 3.33286829,4.94183495 3.33286829,5.55565996 Z" id="vector-4" stroke="#1A2030"></path>
                <path d="M14.4442969,12.2229 L16.667154,12.2229 M8.89001114,12.2229 L11.1114397,12.2229 M3.33429686,12.2229 L5.55572543,12.2229 M3.33286829,15.5557571 L5.55572543,15.5557571 M8.88858257,15.5557571 L16.6657254,15.5557571" id="vector-5" stroke="#26A9E0"></path>
            </g>
        </g>
    </g>
</svg>