<?xml version="1.0" encoding="UTF-8"?>
<svg width="21px" height="19px" viewBox="0 0 21 19" version="1.1" xmlns="http://www.w3.org/2000/svg" xmlns:xlink="http://www.w3.org/1999/xlink">
    <!-- Generator: Sketch 52.3 (67297) - http://www.bohemiancoding.com/sketch -->
    <title>i-deal-toegevoegd</title>
    <desc>Created with Sketch.</desc>
    <g id="Intern-Dashboard" stroke="none" stroke-width="1" fill="none" fill-rule="evenodd" stroke-linecap="round" stroke-linejoin="round">
        <g id="Iconen" transform="translate(-994.000000, -246.000000)" stroke-width="1.79999989">
            <g id="i-deal-toegevoegd" transform="translate(995.000000, 247.000000)">
                <path d="M16.6598365,8.50017619 C16.6599681,9.24331542 16.5646263,9.9831912 16.376307,10.7004613 C15.7987145,12.8851934 14.401579,14.7423699 12.4939539,15.8611757 C9.57270039,17.5795983 5.94044954,17.3365097 3.25866002,15.243104 C2.39313003,14.5654531 1.66553117,13.7183244 1.11748359,12.7501759 C-0.275107162,10.2953579 -0.37202736,7.28059 0.859836568,4.73588953 C1.59297658,3.22595875 2.74342375,1.97430194 4.16571881,1.13917563 C6.74719312,-0.379725198 9.9136556,-0.379725198 12.4951306,1.13917563 M13.5363078,8.50017553 C13.5361917,8.9644547 13.4764556,9.42667033 13.3586608,9.87474716 C12.9980006,11.2404307 12.1249947,12.4015045 10.9327783,13.1011042 C9.10708671,14.1749869 6.83711262,14.0231213 5.16101337,12.7149616 C4.61986744,12.291525 4.16491733,11.7621197 3.82218961,11.1570331 C2.95264553,9.62341362 2.89202311,7.74034723 3.66101314,6.15053277 C4.11919624,5.20564925 4.83853215,4.42220245 5.7280722,3.89924705 C7.34152501,2.95005636 9.32050191,2.95005636 10.9339549,3.89924705" id="Vector-29" stroke="#26A9E0"></path>
                <path d="M7.42924859,9.03203285 L14.6433662,4.78203285 L7.42924859,9.03203285 Z M7.42924859,9.03203273 L10.2739545,9.81038987 L7.42924859,9.03203273 Z M7.42924824,9.03203249 L8.19160118,6.12867534 L7.42924824,9.03203249 Z M14.6433659,4.78203261 L18.8257188,5.75346118 L14.6433659,4.78203261 Z M14.6433659,4.78203273 L15.8704247,0.485889871 L14.6433659,4.78203273 Z" id="Combined-Shape" stroke="#1A2030"></path>
            </g>
        </g>
    </g>
</svg>