<?xml version="1.0" encoding="UTF-8"?>
<svg width="21px" height="21px" viewBox="0 0 21 21" version="1.1" xmlns="http://www.w3.org/2000/svg" xmlns:xlink="http://www.w3.org/1999/xlink">
    <!-- Generator: Sketch 52.3 (67297) - http://www.bohemiancoding.com/sketch -->
    <title>i-inkomend-gesprek</title>
    <desc>Created with Sketch.</desc>
    <g id="Intern-Dashboard" stroke="none" stroke-width="1" fill="none" fill-rule="evenodd" stroke-linecap="round" stroke-linejoin="round">
        <g id="Iconen" transform="translate(-943.000000, -246.000000)" stroke-width="1.98000012">
            <g id="i-inkomend-gesprek" transform="translate(944.000000, 247.000000)">
                <path d="M0.877933618,6.13445412 C1.77439247,5.18485141 2.09086952,4.92574553 2.47390218,4.80365375 C2.73829949,4.73407432 3.01568985,4.72988374 3.28207329,4.79144457 C3.63250702,4.8945443 3.72486966,4.97051253 4.87396708,6.11410559 C5.8831625,7.11797137 5.98367437,7.2278539 6.08146974,7.42320074 C6.26669689,7.76834975 6.2953653,8.17611727 6.1602497,8.54373199 C6.06109601,8.82318653 5.91304421,9.00768061 5.30182245,9.62899227 L4.90249075,10.0359651 C4.79475504,10.1434523 4.76995006,10.3086107 4.84136872,10.4429372 C5.7287708,11.9547874 6.98776101,13.2154743 8.49919171,14.1056906 C8.67322676,14.1985084 8.8873719,14.1683459 9.02891828,14.0310795 L9.41330841,13.6539511 C9.65055362,13.4107177 9.90180788,13.1815192 10.1657909,12.9675237 C10.5762015,12.7079965 11.0914744,12.6777544 11.529495,12.8874864 C11.7427436,12.9878733 11.8133736,13.0516317 12.8551678,14.0894122 C13.9295598,15.1583937 13.9594421,15.1923078 14.0776113,15.4378481 C14.3016871,15.842626 14.3016871,16.3340254 14.0776113,16.7388041 C13.962158,16.9667087 13.8915287,17.0494596 13.2884562,17.6653449 C12.9230812,18.0370459 12.5807968,18.3802604 12.5264661,18.4277397 C12.027012,18.8412631 11.3856706,19.0437439 10.7389816,18.9920753 C9.55870967,18.8845795 8.41634176,18.5201633 7.39220135,17.9244505 C5.1237905,16.7235732 3.19283444,14.9741231 1.77575065,12.8359368 C1.46595048,12.3893012 1.19034418,11.9199488 0.951280229,11.431881 C0.314096525,10.3392641 -0.014494327,9.09452194 0.000490530327,7.83017344 C0.0489479994,7.16900642 0.365953475,6.55637156 0.877933618,6.13445412 Z" id="Vector-21" stroke="#26A9E0"></path>
                <path d="M16.9109794,7.12202071 L11.8690778,7.12202071 M11.8690778,7.12202071 L11.8690778,2.3740069 M11.8690778,7.12202071 L19,0" id="Vector-22" stroke="#1A2030"></path>
            </g>
        </g>
    </g>
</svg>