<?xml version="1.0" encoding="UTF-8"?>
<svg width="18px" height="22px" viewBox="0 0 18 22" version="1.1" xmlns="http://www.w3.org/2000/svg" xmlns:xlink="http://www.w3.org/1999/xlink">
    <!-- Generator: Sketch 52.3 (67297) - http://www.bohemiancoding.com/sketch -->
    <title>i-notitie</title>
    <desc>Created with Sketch.</desc>
    <g id="Intern-Dashboard" stroke="none" stroke-width="1" fill="none" fill-rule="evenodd" stroke-linecap="round" stroke-linejoin="round">
        <g id="Iconen" transform="translate(-941.000000, -196.000000)" stroke-width="1.96874991">
            <g id="i-notitie" transform="translate(942.000000, 197.000000)">
                <path d="M13.427914,0.204943972 L15.6647146,2.20370025 C15.8806796,2.43474285 16.001716,2.75232345 15.9999814,3.0833814 C15.9982462,3.41443935 15.8738872,3.73046955 15.6555148,3.95876745 L13.955776,6.2315163 L8.1711448,13.980327 C8.07098788,14.1098055 7.93616392,14.201271 7.78588576,14.241693 L4.78661788,14.9992755 C4.38864936,15.0173505 4.04545616,14.6950875 4,14.260632 L4.1403032,11.0118645 C4.15070157,10.8459945 4.21051036,10.688487 4.31050704,10.5636285 L9.8455828,3.15825465 L11.7948772,0.547118895 C12.1736092,-0.0188761845 12.8859484,-0.16813464 13.427914,0.204943972 Z" id="Vector-14" stroke="#26A9E0"></path>
                <path d="M0,19.5 L16,19.5" id="Vector-15" stroke="#1A2030"></path>
            </g>
        </g>
    </g>
</svg>