<?xml version="1.0" encoding="UTF-8"?>
<svg width="172px" height="40px" viewBox="0 0 172 40" version="1.1" xmlns="http://www.w3.org/2000/svg" xmlns:xlink="http://www.w3.org/1999/xlink">
    <!-- Generator: Sketch 52.3 (67297) - http://www.bohemiancoding.com/sketch -->
    <title>textwerk-logo</title>
    <desc>Created with Sketch.</desc>
    <g id="Email-handtekening" stroke="none" stroke-width="1" fill="none" fill-rule="evenodd">
        <g id="Textwerk" transform="translate(-79.000000, -1514.000000)">
            <g id="Group-5" transform="translate(80.000000, 1310.000000)">
                <g id="Group-11" transform="translate(0.000000, 75.000000)">
                    <g id="Group-10" transform="translate(0.000000, 130.000000)">
                        <g id="textwerk-logo">
                            <g id="tw-icoon">
                                <g id="Buik" transform="translate(10.889999, 9.903315)">
                                    <path d="M8.66014242,25.3614185 C12.7191816,25.3614185 16.2288099,20.0012397 16.2288099,13.2264467 C16.2288099,6.45165374 12.7191816,1.09147493 8.66014242,1.09147493 C5.90503092,1.09147493 3.30015098,3.58532821 1.96840022,7.59361128 C1.39547629,9.31798898 1.09147493,11.2367386 1.09147493,13.2264467 C1.09147493,20.0012397 4.60110325,25.3614185 8.66014242,25.3614185 Z" stroke="#235FA1" stroke-width="2.18294985" fill="#F5F5F5"></path>
                                    <g id="Patroon" transform="translate(4.874571, 15.301183)" fill="#91AFD0">
                                        <path d="M1.70246991,0.0290463143 L0.223504275,0.0290463143 C0.0873792813,0.0290463143 0.00169572849,0.175533102 0.0675283681,0.294265098 L0.807114903,1.62256343 C0.874975156,1.7445372 1.05080198,1.7445372 1.11866223,1.62256343 L1.85824876,0.294265098 C1.92428365,0.175128528 1.83839733,0.0290463143 1.7024751,0.0290463143 L1.70246991,0.0290463143 Z" id="Path"></path>
                                        <path d="M4.52349835,0.0290463143 L3.04453271,0.0290463143 C2.90840771,0.0290463143 2.82272416,0.175533102 2.8885568,0.294265098 L3.62814333,1.62256343 C3.69600359,1.7445372 3.87183041,1.7445372 3.93969066,1.62256343 L4.67927719,0.294265098 C4.74531208,0.175128528 4.65942576,0.0290463143 4.52350353,0.0290463143 L4.52349835,0.0290463143 Z" id="Path"></path>
                                        <path d="M7.3440082,0.0290463143 L5.86504256,0.0290463143 C5.72891757,0.0290463143 5.64323402,0.175533102 5.70906666,0.294265098 L6.44865319,1.62256343 C6.51651345,1.7445372 6.69234027,1.7445372 6.76020052,1.62256343 L7.49978705,0.294265098 C7.56602418,0.175128528 7.48013786,0.0290463143 7.34401339,0.0290463143 L7.3440082,0.0290463143 Z" id="Path"></path>
                                        <path d="M3.1207627,2.28013568 L1.64179706,2.28013568 C1.50567207,2.28013568 1.41998851,2.42662246 1.48582115,2.54535446 L2.22540769,3.87365279 C2.29326794,3.99562656 2.46909476,3.99562656 2.53695502,3.87365279 L3.27654155,2.54535446 C3.34257643,2.42621789 3.25669012,2.28013568 3.12076789,2.28013568 L3.1207627,2.28013568 Z" id="Path"></path>
                                        <path d="M5.94127256,2.28013568 L4.46230692,2.28013568 C4.32618193,2.28013568 4.24049837,2.42662246 4.30633101,2.54535446 L5.04591755,3.87365279 C5.1137778,3.99562656 5.28960462,3.99562656 5.35746488,3.87365279 L6.09705141,2.54535446 C6.16349078,2.42621789 6.07760498,2.28013568 5.94127775,2.28013568 L5.94127256,2.28013568 Z" id="Path"></path>
                                    </g>
                                </g>
                                <g id="Oog-Links" transform="translate(4.770857, 5.235158)">
                                    <ellipse id="Oog" stroke="#235FA1" stroke-width="2.18294985" fill="#DDEBEF" cx="7.77857104" cy="7.78026277" rx="6.68709611" ry="6.68878784"></ellipse>
                                    <ellipse id="Iris" fill="#222222" cx="7.83514247" cy="7.83568382" rx="2.48914273" ry="2.48968409"></ellipse>
                                </g>
                                <g id="Oog-Rechts" transform="translate(18.668570, 5.235158)">
                                    <ellipse id="Oog" stroke="#235FA1" stroke-width="2.18294985" fill="#DDEBEF" cx="7.77857104" cy="7.78026277" rx="6.68709611" ry="6.68878784"></ellipse>
                                    <ellipse id="Iris" fill="#222222" cx="7.83514247" cy="7.83568382" rx="2.48914273" ry="2.48968409"></ellipse>
                                </g>
                                <polygon id="Neus" fill="#235FA1" points="19.5141201 23.8268637 22.2717785 19.2921037 19.5141201 15.7125782 16.8017134 19.2921037"></polygon>
                                <path d="M37.4595653,1.0230519 C37.4595653,2.69615776 36.1010298,4.05664204 34.4307273,4.05664204 L25.4557586,4.05664204 C22.9189181,4.05664204 20.7132134,5.49510643 19.6026602,7.59815461 C18.4917959,5.49448321 16.2864023,4.05664204 13.7495618,4.05664204 L4.77381525,4.05664204 C3.1032016,4.05664204 1.74474387,2.69607986 1.74474387,1.0230519 L1.74474387,0.260763145 L0,0.260763145 L0,1.02274029 C0,3.31353281 1.61771905,5.23125163 3.76897346,5.69508141 C4.0934896,5.76476728 4.42894247,5.80371605 4.77381525,5.80371605 L13.7495618,5.80371605 C16.4377742,5.80371605 18.8455659,7.21109266 18.8455659,9.90331529 L20.1322988,9.90331529 C20.1322988,7.21109266 22.767624,5.80371605 25.4561475,5.80371605 L34.4311162,5.80371605 C34.775989,5.80371605 35.1114419,5.76476494 35.4356469,5.69508141 C37.586279,5.23162556 39.203998,3.31361071 39.203998,1.0230519 L39.203998,0.260763145 L37.4592542,0.260763145 L37.4595653,1.0230519 Z" id="Wenkbrauw" stroke="#235FA1" stroke-width="1.78199991" fill="#FFFFFF"></path>
                                <rect id="Balkje" fill="#235FA1" x="6.53399967" y="34.4519983" width="26.1359987" height="2.37599988" rx="1.18799994"></rect>
                                <g id="Poten" transform="translate(14.255999, 36.233998)" fill="#235FA1">
                                    <path d="M7.29541345,2.14544873e-14 L9.92050155,2.14828155e-14 C10.0636054,2.14565278e-14 10.1883437,0.097397862 10.2230443,0.236230728 L10.6825709,2.07473674 L6.53399967,2.05191632 L6.99306942,0.235439957 C7.02805849,0.0969929429 7.15261356,2.15090474e-14 7.29541345,2.14828155e-14 Z" id="Gear-Copy-3" transform="translate(8.608285, 1.037368) scale(1, -1) translate(-8.608285, -1.037368) "></path>
                                    <path d="M0.761413781,2.14544873e-14 L3.38650187,2.14828155e-14 C3.52960568,2.14565278e-14 3.65434399,0.097397862 3.68904466,0.236230728 L4.14857122,2.07473674 L-5.32907052e-15,2.05191632 L0.459069742,0.235439957 C0.494058821,0.0969929429 0.618613882,2.15090474e-14 0.761413781,2.14828155e-14 Z" id="Gear-Copy-4" transform="translate(2.074286, 1.037368) scale(1, -1) translate(-2.074286, -1.037368) "></path>
                                </g>
                                <g id="Handen" transform="translate(9.504000, 26.729999)" fill="#235FA1">
                                    <path d="M17.1104985,1.27952156 L19.7355866,1.27952156 C19.8786904,1.27952156 20.0034287,1.37691942 20.0381293,1.51575228 L20.4976559,3.35425829 L16.3490847,3.33143788 L16.8081544,1.51496151 C16.8431435,1.3765145 16.9676986,1.27952156 17.1104985,1.27952156 Z" id="Gear-Copy" transform="translate(18.423370, 2.316890) scale(1, -1) rotate(-294.000000) translate(-18.423370, -2.316890) "></path>
                                    <path d="M0.478499298,1.27952156 L3.10358739,1.27952156 C3.2466912,1.27952156 3.37142951,1.37691942 3.40613018,1.51575228 L3.86565674,3.35425829 L-0.282914483,3.33143788 L0.176155259,1.51496151 C0.211144338,1.3765145 0.335699399,1.27952156 0.478499298,1.27952156 Z" id="Gear-Copy-2" transform="translate(1.791371, 2.316890) scale(-1, -1) rotate(-294.000000) translate(-1.791371, -2.316890) "></path>
                                </g>
                            </g>
                            <g id="Group-4" transform="translate(45.143998, 4.752000)" font-size="29.6999985" letter-spacing="-0.59399997" line-spacing="29.6999985">
                                <g id="Group-2" fill="#235FA1" font-family="SpaceGrotesk-Bold, Space Grotesk" font-weight="bold">
                                    <text id="Text">
                                        <tspan x="0" y="29">Text</tspan>
                                    </text>
                                </g>
                                <text id="werk" font-family="SpaceGrotesk-Regular, Space Grotesk" font-weight="normal" fill="#91AFD0">
                                    <tspan x="59.9609954" y="29">werk</tspan>
                                </text>
                            </g>
                            <g id="Group-2-Copy" transform="translate(105.137995, 4.752000)"></g>
                        </g>
                    </g>
                </g>
            </g>
        </g>
    </g>
</svg>