<?xml version="1.0" encoding="UTF-8"?>
<svg width="290px" height="67px" viewBox="0 0 290 67" version="1.1" xmlns="http://www.w3.org/2000/svg" xmlns:xlink="http://www.w3.org/1999/xlink">
    <!-- Generator: Sketch 52.3 (67297) - http://www.bohemiancoding.com/sketch -->
    <title>vertaalbureau-textwerk-logo-wit</title>
    <desc>Created with Sketch.</desc>
    <g id="vertaalbureau-textwerk-logo-wit" stroke="none" stroke-width="1" fill="none" fill-rule="evenodd">
        <g id="logo" transform="translate(2.000000, 2.000000)">
            <g id="icoon">
                <g id="Buik" transform="translate(18.333333, 16.672249)">
                    <path d="M14.5793651,42.6959929 C21.4127647,42.6959929 27.3212302,33.6721223 27.3212302,22.2667464 C27.3212302,10.8613705 21.4127647,1.83749997 14.5793651,1.83749997 C9.94113,1.83749997 5.55581001,6.03590637 3.31380525,12.783858 C2.34928679,15.6868509 1.83749997,18.9170692 1.83749997,22.2667464 C1.83749997,33.6721223 7.74596545,42.6959929 14.5793651,42.6959929 Z" stroke="#FFFFFF" stroke-width="3.67499994" fill="#235FA1"></path>
                    <g id="Patroon" transform="translate(8.206349, 25.759569)" fill="#FFFFFF">
                        <path d="M2.86611111,0.0488995215 L0.376269841,0.0488995215 C0.147103175,0.0488995215 0.0028547619,0.295510287 0.113684127,0.495395813 L1.35877937,2.7315884 C1.47302222,2.93693146 1.76902698,2.93693146 1.88326984,2.7315884 L3.12836508,0.495395813 C3.23953492,0.294829187 3.09494516,0.0488995215 2.86611984,0.0488995215 L2.86611111,0.0488995215 Z" id="Path"></path>
                        <path d="M7.61531746,0.0488995215 L5.12547619,0.0488995215 C4.89630952,0.0488995215 4.75206111,0.295510287 4.86289048,0.495395813 L6.10798571,2.7315884 C6.22222857,2.93693146 6.51823333,2.93693146 6.63247619,2.7315884 L7.87757143,0.495395813 C7.98874127,0.294829187 7.84415151,0.0488995215 7.61532619,0.0488995215 L7.61531746,0.0488995215 Z" id="Path"></path>
                        <path d="M12.3636508,0.0488995215 L9.87380952,0.0488995215 C9.64464286,0.0488995215 9.50039444,0.295510287 9.61122381,0.495395813 L10.856319,2.7315884 C10.9705619,2.93693146 11.2665667,2.93693146 11.3808095,2.7315884 L12.6259048,0.495395813 C12.7374151,0.294829187 12.5928253,0.0488995215 12.3636595,0.0488995215 L12.3636508,0.0488995215 Z" id="Path"></path>
                        <path d="M5.25380952,3.83861244 L2.76396825,3.83861244 C2.53480159,3.83861244 2.39055317,4.08522321 2.50138254,4.28510873 L3.74647778,6.52130132 C3.86072063,6.72664438 4.1567254,6.72664438 4.27096825,6.52130132 L5.51606349,4.28510873 C5.62723333,4.08454211 5.48264357,3.83861244 5.25381825,3.83861244 L5.25380952,3.83861244 Z" id="Path"></path>
                        <path d="M10.0021429,3.83861244 L7.51230159,3.83861244 C7.28313492,3.83861244 7.13888651,4.08522321 7.24971587,4.28510873 L8.49481111,6.52130132 C8.60905397,6.72664438 8.90505873,6.72664438 9.01930159,6.52130132 L10.2643968,4.28510873 C10.3762476,4.08454211 10.2316587,3.83861244 10.0021516,3.83861244 L10.0021429,3.83861244 Z" id="Path"></path>
                    </g>
                </g>
                <g id="Oog-Links" transform="translate(8.031746, 8.813397)">
                    <ellipse id="Oog" stroke="#FFFFFF" stroke-width="3.67499994" fill="#7BABDF" cx="13.0952381" cy="13.0980861" rx="11.2577381" ry="11.2605862"></ellipse>
                    <ellipse id="Iris" fill="#235FA1" cx="13.1904762" cy="13.1913876" rx="4.19047619" ry="4.19138756"></ellipse>
                </g>
                <g id="Oog-Rechts" transform="translate(31.428571, 8.813397)">
                    <ellipse id="Oog" stroke="#FFFFFF" stroke-width="3.67499994" fill="#7BABDF" cx="13.0952381" cy="13.0980861" rx="11.2577381" ry="11.2605862"></ellipse>
                    <ellipse id="Iris" fill="#235FA1" cx="13.1904762" cy="13.1913876" rx="4.19047619" ry="4.19138756"></ellipse>
                </g>
                <polygon id="Neus" fill="#FFFFFF" points="32.8520557 40.1125672 37.4945785 32.4782907 32.8520557 26.4521531 28.2857143 32.4782907"></polygon>
                <path d="M63.0632444,1.72230967 C63.0632444,4.53898635 60.7761475,6.82936404 57.9641903,6.82936404 L42.8548146,6.82936404 C38.5840392,6.82936404 34.8707314,9.25102139 33.0011131,12.7915067 C31.130971,9.2499722 27.418187,6.82936404 23.1474116,6.82936404 L8.03672641,6.82936404 C5.22424538,6.82936404 2.93727939,4.5388552 2.93727939,1.72230967 L2.93727939,0.438995215 L0,0.438995215 L0,1.72178508 C0,5.57833834 2.72343288,8.80682136 6.34507348,9.58767963 C6.89139697,9.70499591 7.45613248,9.77056623 8.03672641,9.77056623 L23.1474116,9.77056623 C27.6730219,9.77056623 31.7265436,12.1398872 31.7265436,16.6722488 L33.8927606,16.6722488 C33.8927606,12.1398872 38.3293353,9.77056623 42.8554694,9.77056623 L57.964845,9.77056623 C58.545439,9.77056623 59.1101745,9.70499197 59.6559741,9.58767963 C63.2765671,8.80745087 66,5.57846949 66,1.72230967 L66,0.438995215 L63.0627206,0.438995215 L63.0632444,1.72230967 Z" id="Wenkbrauw" stroke="#FFFFFF" stroke-width="3" fill="#FFFFFF"></path>
                <rect id="Balkje" fill="#FFFFFF" x="11" y="58" width="44" height="4" rx="2"></rect>
                <g id="Poten" transform="translate(24.000000, 61.000000)" fill="#FFFFFF">
                    <path d="M12.2818414,2.15489508e-14 L16.7011819,2.14273044e-14 C16.9420974,2.13830489e-14 17.1520946,0.163969473 17.2105132,0.397694849 L17.984127,3.49282297 L11,3.45440476 L11.7728447,0.396363583 C11.8317489,0.163287791 12.0414376,2.2248622e-14 12.2818414,2.22044605e-14 Z" id="Gear-Copy-3" transform="translate(14.492063, 1.746411) scale(1, -1) translate(-14.492063, -1.746411) "></path>
                    <path d="M1.28184145,2.15489508e-14 L5.70118189,2.14273044e-14 C5.94209741,2.13830489e-14 6.15209457,0.163969473 6.2105132,0.397694849 L6.98412698,3.49282297 L-5.32907052e-15,3.45440476 L0.772844722,0.396363583 C0.831748898,0.163287791 1.04143756,2.2248622e-14 1.28184145,2.22044605e-14 Z" id="Gear-Copy-4" transform="translate(3.492063, 1.746411) scale(1, -1) translate(-3.492063, -1.746411) "></path>
                </g>
                <g id="Handen" transform="translate(16.000000, 45.000000)" fill="#FFFFFF">
                    <path d="M28.8055544,2.1540768 L33.2248949,2.1540768 C33.4658104,2.1540768 33.6758075,2.31804627 33.7342262,2.55177165 L34.50784,5.64689977 L27.523713,5.60848156 L28.2965577,2.55044038 C28.3554619,2.31736459 28.5651505,2.1540768 28.8055544,2.1540768 Z" id="Gear-Copy" transform="translate(31.015776, 3.900488) scale(1, -1) rotate(-294.000000) translate(-31.015776, -3.900488) "></path>
                    <path d="M0.805554414,2.1540768 L5.22489485,2.1540768 C5.46581038,2.1540768 5.67580753,2.31804627 5.73422617,2.55177165 L6.50783995,5.64689977 L-0.476287032,5.60848156 L0.29655769,2.55044038 C0.355461866,2.31736459 0.565150531,2.1540768 0.805554414,2.1540768 Z" id="Gear-Copy-2" transform="translate(3.015776, 3.900488) scale(-1, -1) rotate(-294.000000) translate(-3.015776, -3.900488) "></path>
                </g>
            </g>
            <g id="Tekst" transform="translate(76.000000, 8.000000)">
                <g id="Group-4" font-size="50" letter-spacing="-1" line-spacing="50">
                    <g id="Group-2" fill="#FFFFFF" font-family="SpaceGrotesk-Bold, Space Grotesk" font-weight="bold">
                        <text id="Text">
                            <tspan x="0" y="49">Text</tspan>
                        </text>
                    </g>
                    <text id="werk" font-family="SpaceGrotesk-Regular, Space Grotesk" font-weight="normal" fill="#91AFD0">
                        <tspan x="101" y="49">werk</tspan>
                    </text>
                </g>
                <g id="Group-2-Copy" transform="translate(101.000000, 0.000000)"></g>
            </g>
        </g>
    </g>
</svg>