<?xml version="1.0" encoding="UTF-8"?>
<svg width="329px" height="90px" viewBox="0 0 329 90" version="1.1" xmlns="http://www.w3.org/2000/svg" xmlns:xlink="http://www.w3.org/1999/xlink">
    <!-- Generator: Sketch 52.3 (67297) - http://www.bohemiancoding.com/sketch -->
    <title>linguatech-logo-wit</title>
    <desc>Created with Sketch.</desc>
    <defs>
        <linearGradient x1="100%" y1="50%" x2="0%" y2="50%" id="linearGradient-1">
            <stop stop-color="#C0D7FC" offset="0%"></stop>
            <stop stop-color="#FFFFFF" offset="100%"></stop>
        </linearGradient>
        <linearGradient x1="100%" y1="50%" x2="0%" y2="50%" id="linearGradient-2">
            <stop stop-color="#4388F7" offset="0%"></stop>
            <stop stop-color="#0460F4" offset="100%"></stop>
        </linearGradient>
        <linearGradient x1="100%" y1="50%" x2="0%" y2="50%" id="linearGradient-3">
            <stop stop-color="#0460F4" offset="0%"></stop>
            <stop stop-color="#0460F4" offset="100%"></stop>
        </linearGradient>
    </defs>
    <g id="Uiteindelijke-logo" stroke="none" stroke-width="1" fill="none" fill-rule="evenodd">
        <g id="Linguatech---Logo-EPS@20x"></g>
        <g id="Blauwe---wit" transform="translate(-86.000000, -105.000000)">
            <g id="linguatech-logo-wit" transform="translate(86.000000, 105.000000)">
                <g id="linguatech-icoon-wit">
                    <g id="Group" transform="translate(11.000000, 46.000000)" stroke="url(#linearGradient-1)">
                        <g id="5" transform="translate(0.480075, 23.447146)">
                            <path d="M0.348395392,0.305821539 C3.64999777,5.70990954 7.5829025,9.67218418 12.1471096,12.1926454 C16.7113167,14.7131067 21.880626,16.0240996 27.6550375,16.1256242" id="Poot" stroke-width="3"></path>
                            <ellipse id="Rond" stroke-width="2" fill="url(#linearGradient-2)" cx="30.2944932" cy="16.1711947" rx="2.57954545" ry="2.5840708"></ellipse>
                        </g>
                        <g id="1" transform="translate(22.630710, 0.200708)">
                            <path d="M0.475839543,0.752221357 C3.4067942,4.02747718 6.81528486,6.54752609 10.7013115,8.31236809 C14.5873382,10.0772101 18.9747798,10.9260823 23.8636364,10.8589847" id="Poot" stroke-width="3"></path>
                            <ellipse id="Rond" stroke-width="2" fill="url(#linearGradient-2)" cx="26.6477273" cy="10.7522124" rx="2.57954545" ry="2.5840708"></ellipse>
                        </g>
                        <g id="2" transform="translate(32.089918, 13.714164) rotate(-1.000000) translate(-32.089918, -13.714164) translate(10.589918, 1.714164)">
                            <path d="M0.262701216,0.212286859 C6.78252185,6.22209291 12.6832707,10.6818302 17.9649478,13.5914989 C23.2466248,16.5011675 29.057733,18.530595 35.3982724,19.6797816" id="Poot" stroke-width="3"></path>
                            <ellipse id="Rond" stroke-width="2" fill="url(#linearGradient-2)" cx="38.4725231" cy="20.2155473" rx="2.57954545" ry="2.5840708"></ellipse>
                        </g>
                        <g id="3" transform="translate(14.083538, 14.836415) rotate(-2.000000) translate(-14.083538, -14.836415) translate(3.583538, 5.836415)">
                            <path d="M3.55271368e-15,0.128029461 C2.29485649,2.79471614 4.64306045,5.12731383 7.0446119,7.12582255 C9.44616335,9.12433127 11.8289456,10.6999622 14.1929588,11.8527154" id="Poot" stroke-width="3"></path>
                            <ellipse id="Rond" stroke-width="2" fill="url(#linearGradient-2)" cx="16.6122725" cy="13.4982186" rx="2.57954545" ry="2.5840708"></ellipse>
                        </g>
                        <g id="4" transform="translate(14.317893, 22.993169) rotate(-2.000000) translate(-14.317893, -22.993169) translate(0.817893, 13.493169)">
                            <path d="M0.194291264,0.216582781 C3.18941621,4.42378677 6.40260602,7.77152421 9.83386071,10.2597951 C13.2651154,12.748066 16.8197578,14.3082125 20.4977881,14.9402348" id="Poot" stroke-width="3"></path>
                            <ellipse id="Rond" stroke-width="2" fill="url(#linearGradient-2)" cx="23.2800375" cy="15.3948498" rx="2.57954545" ry="2.5840708"></ellipse>
                        </g>
                    </g>
                    <circle id="Oog-achtergrond" fill="#C0D7FC" cx="43.7962292" cy="28.9570149" r="8"></circle>
                    <circle id="Oog-achtergrond" fill="#C0D7FC" cx="19.2407126" cy="29.0031386" r="8"></circle>
                    <ellipse id="Iris-rechts" fill="url(#linearGradient-3)" cx="43.75" cy="28.6725664" rx="3.18181818" ry="3.18584071"></ellipse>
                    <path d="M50.3124224,32.163704 C49.1732758,33.8861609 47.266019,34.9222163 45.1596954,34.9222163 C41.7953907,34.9222163 39.0532644,32.2414377 39.0532644,28.9518731 C39.0532644,25.9085344 41.4507856,23.3183959 44.5369115,23.020308 L44.5369115,21.2072111 L44.5236656,21 C40.3116239,21.3237821 37,24.7558488 37,28.9515771 C37,33.3548125 40.6558657,36.9292035 45.1594683,36.9292035 C48.100056,36.9292035 50.6830802,35.4010218 52.1136364,33.121848 L51.8222268,32.9405383 L50.3124224,32.163704 Z" id="Path" fill="#FEFEFF" transform="translate(44.556818, 28.964602) scale(-1, 1) translate(-44.556818, -28.964602) "></path>
                    <ellipse id="Iris-links" fill="url(#linearGradient-3)" cx="19.1818182" cy="28.6758407" rx="3.18181818" ry="3.18584071"></ellipse>
                    <path d="M24.3124224,32.163704 C23.1732758,33.8861609 21.266019,34.9222163 19.1596954,34.9222163 C15.7953907,34.9222163 13.0532644,32.2414377 13.0532644,28.9518731 C13.0532644,25.9085344 15.4507856,23.3183959 18.5369115,23.020308 L18.5369115,21.2072111 L18.5236656,21 C14.3116239,21.3237821 11,24.7558488 11,28.9515771 C11,33.3548125 14.6558657,36.9292035 19.1594683,36.9292035 C22.100056,36.9292035 24.6830802,35.4010218 26.1136364,33.121848 L25.8222268,32.9405383 L24.3124224,32.163704 Z" id="Ooglid-links" fill="#FEFEFF"></path>
                    <path d="M26.400515,49.6017656 C26.3786899,49.6016656 26.3568531,49.6016156 26.3350046,49.6016156 C23.7859864,49.6016156 21.3960779,50.2828454 19.3374075,51.4731766 C18.2821174,52.0459918 17.4483811,52.7008233 16.7861736,53.363388 C14.0473887,55.9188595 12.3350046,59.5602632 12.3350046,63.6016156 C12.3350046,66.4562969 13.189408,69.1114215 14.6564428,71.3252174 C14.6731691,71.5168517 14.6902105,71.7104205 14.7075673,71.9059238 L11,71.278245 C3.66666667,60.8808532 -6.47498737e-15,49.3239913 -7.10542736e-15,36.6076591 C-7.10542736e-15,23.891327 4.2750258,11.6887739 12.8250774,7.10542736e-15 C18.9984258,4.71081075 25.2480561,7.06621612 31.5739681,7.06621612 C37.8998801,7.06621612 44.231478,4.71081075 50.5687617,7.10542736e-15 C55.4655866,5.71648325 58.504333,11.7298362 59.6850009,18.0400588 C60.8656688,24.3502814 59.8120271,28.9465611 56.5240759,31.828898 C56.8633597,28.2330934 56.5614731,25.3434215 55.618416,23.1598822 C54.675359,20.976343 52.8431666,19.2697352 50.121839,18.0400588 L50.5687617,14.6267248 C46.5669165,15.723826 42.6481269,18.8058779 38.8123931,23.8728806 C34.9766593,28.9398833 32.5638509,35.0594588 31.5739681,42.231607 C29.0732968,33.4377194 26.5358065,27.3181439 23.9614971,23.8728806 C21.3871877,20.4276173 17.6750478,17.3455654 12.8250774,14.6267248 L13.4507086,18.0400588 C9.420293,20.4268611 7.51100035,24.4750796 7.72283061,30.1847143 C8.040576,38.7491663 17.5946202,44.178961 25.2142059,44.9304011 C32.8337917,45.6818412 44.1581823,43.6177853 52.4365979,40.9622043 C57.9555416,39.1918169 63.2745965,35.5993203 68.3937626,30.1847143 C69.9870987,35.3988907 69.7326845,39.4145216 67.6305198,42.231607 C64.4772727,46.457235 62.8074623,47.2039034 59.6850009,48.0566871 C53.6275995,49.6400434 35.3358392,48.7106681 26.400515,49.6017656 Z" id="Lijf" fill="url(#linearGradient-1)"></path>
                </g>
                <path d="M80,57 L80,22 L86.4,22 L86.4,52 L101.9,52 L101.9,57 L80,57 Z M109.85,28.35 C108.683328,28.35 107.725004,28.0000035 106.975,27.3 C106.224996,26.5999965 105.85,25.716672 105.85,24.65 C105.85,23.583328 106.224996,22.7083368 106.975,22.025 C107.725004,21.3416633 108.683328,21 109.85,21 C111.016673,21 111.974996,21.3416633 112.725,22.025 C113.475004,22.7083368 113.85,23.583328 113.85,24.65 C113.85,25.716672 113.475004,26.5999965 112.725,27.3 C111.974996,28.0000035 111.016673,28.35 109.85,28.35 Z M106.65,57 L106.65,32.2 L113.05,32.2 L113.05,57 L106.65,57 Z M118.75,57 L118.75,32.2 L124.4,32.2 L124.9,36.4 C125.666671,34.933326 126.774993,33.766671 128.225,32.9 C129.675007,32.033329 131.383324,31.6 133.35,31.6 C136.416682,31.6 138.799992,32.566657 140.5,34.5 C142.200009,36.433343 143.05,39.266648 143.05,43 L143.05,57 L136.65,57 L136.65,43.6 C136.65,41.466656 136.216671,39.833339 135.35,38.7 C134.483329,37.566661 133.133343,37 131.3,37 C129.499991,37 128.025006,37.633327 126.875,38.9 C125.724994,40.166673 125.15,41.933322 125.15,44.2 L125.15,57 L118.75,57 Z M158.65,49.6 C157.449994,49.6 156.333339,49.466668 155.3,49.2 L153.45,51.05 C154.01667,51.3500015 154.783329,51.599999 155.75,51.8 C156.716672,52.000001 158.283323,52.199999 160.45,52.4 C163.750017,52.7000015 166.149993,53.483327 167.65,54.75 C169.150008,56.016673 169.9,57.7666555 169.9,60 C169.9,61.466674 169.500004,62.8583268 168.7,64.175 C167.899996,65.4916732 166.666675,66.5583292 165,67.375 C163.333325,68.1916708 161.200013,68.6 158.6,68.6 C155.066649,68.6 152.216678,67.9416733 150.05,66.625 C147.883323,65.3083267 146.8,63.3333465 146.8,60.7 C146.8,58.4666555 147.883323,56.5333415 150.05,54.9 C149.38333,54.5999985 148.808336,54.283335 148.325,53.95 C147.841664,53.616665 147.416669,53.2666685 147.05,52.9 L147.05,51.75 L151.4,47.15 C149.466657,45.4499915 148.5,43.26668 148.5,40.6 C148.5,38.933325 148.908329,37.4166735 149.725,36.05 C150.541671,34.6833265 151.699993,33.600004 153.2,32.8 C154.700008,31.999996 156.516656,31.6 158.65,31.6 C160.050007,31.6 161.349994,31.799998 162.55,32.2 L171.95,32.2 L171.95,36.1 L167.7,36.4 C168.36667,37.666673 168.7,39.066659 168.7,40.6 C168.7,42.266675 168.300004,43.7833265 167.5,45.15 C166.699996,46.5166735 165.541674,47.599996 164.025,48.4 C162.508326,49.200004 160.716677,49.6 158.65,49.6 Z M158.65,44.7 C159.950007,44.7 161.024996,44.3500035 161.875,43.65 C162.725004,42.9499965 163.15,41.9500065 163.15,40.65 C163.15,39.3499935 162.725004,38.3500035 161.875,37.65 C161.024996,36.9499965 159.950007,36.6 158.65,36.6 C157.283327,36.6 156.183338,36.9499965 155.35,37.65 C154.516663,38.3500035 154.1,39.3499935 154.1,40.65 C154.1,41.9500065 154.516663,42.9499965 155.35,43.65 C156.183338,44.3500035 157.283327,44.7 158.65,44.7 Z M152.65,60.05 C152.65,61.2833395 153.224994,62.2083303 154.375,62.825 C155.525006,63.4416698 156.933325,63.75 158.6,63.75 C160.200008,63.75 161.499995,63.4250033 162.5,62.775 C163.500005,62.1249968 164,61.2500055 164,60.15 C164,59.2499955 163.675003,58.500003 163.025,57.9 C162.374997,57.299997 161.083343,56.933334 159.15,56.8 C157.783327,56.6999995 156.516673,56.550001 155.35,56.35 C154.383329,56.883336 153.691669,57.4666635 153.275,58.1 C152.858331,58.7333365 152.65,59.38333 152.65,60.05 Z M184.9,57.6 C181.799985,57.6 179.408342,56.633343 177.725,54.7 C176.041658,52.766657 175.2,49.933352 175.2,46.2 L175.2,32.2 L181.55,32.2 L181.55,45.6 C181.55,47.733344 181.983329,49.366661 182.85,50.5 C183.716671,51.633339 185.083324,52.2 186.95,52.2 C188.716676,52.2 190.174994,51.566673 191.325,50.3 C192.475006,49.033327 193.05,47.266678 193.05,45 L193.05,32.2 L199.45,32.2 L199.45,57 L193.8,57 L193.3,52.8 C192.53333,54.266674 191.425007,55.433329 189.975,56.3 C188.524993,57.166671 186.833343,57.6 184.9,57.6 Z M213.55,57.6 C211.416656,57.6 209.666674,57.2583367 208.3,56.575 C206.933327,55.8916633 205.91667,54.983339 205.25,53.85 C204.58333,52.716661 204.25,51.4666735 204.25,50.1 C204.25,47.7999885 205.149991,45.9333405 206.95,44.5 C208.750009,43.0666595 211.449982,42.35 215.05,42.35 L221.35,42.35 L221.35,41.75 C221.35,40.0499915 220.866672,38.800004 219.9,38 C218.933329,37.199996 217.733341,36.8 216.3,36.8 C214.999994,36.8 213.866672,37.1083302 212.9,37.725 C211.933329,38.3416697 211.333335,39.249994 211.1,40.45 L204.85,40.45 C205.016668,38.649991 205.624995,37.08334 206.675,35.75 C207.725005,34.41666 209.083325,33.3916703 210.75,32.675 C212.416675,31.9583297 214.283323,31.6 216.35,31.6 C219.883351,31.6 222.666657,32.4833245 224.7,34.25 C226.733344,36.0166755 227.75,38.5166505 227.75,41.75 L227.75,57 L222.3,57 L221.7,53 C220.966663,54.33334 219.941673,55.433329 218.625,56.3 C217.308327,57.166671 215.616677,57.6 213.55,57.6 Z M215,52.6 C216.833343,52.6 218.258328,52.000006 219.275,50.8 C220.291672,49.599994 220.933332,48.1166755 221.2,46.35 L215.75,46.35 C214.049992,46.35 212.833337,46.6583302 212.1,47.275 C211.366663,47.8916697 211,48.6499955 211,49.55 C211,50.5166715 211.366663,51.266664 212.1,51.8 C212.833337,52.333336 213.799994,52.6 215,52.6 Z M243.75,57 C241.483322,57 239.700006,56.4500055 238.4,55.35 C237.099993,54.2499945 236.45,52.266681 236.45,49.4 L236.45,35.75 L232.15,35.75 L232.15,32.2 L236.45,32.2 L237,26.25 L240.65,26.25 L240.65,32.2 L247.95,32.2 L247.95,35.75 L240.65,35.75 L240.65,49.4 C240.65,50.9666745 240.966663,52.0249972 241.6,52.575 C242.233336,53.1250028 243.349992,53.4 244.95,53.4 L247.55,53.4 L247.55,57 L243.75,57 Z M262.75,57.6 C260.383321,57.6 258.283343,57.0583387 256.45,55.975 C254.616657,54.8916612 253.175005,53.383343 252.125,51.45 C251.074995,49.516657 250.55,47.2333465 250.55,44.6 C250.55,41.999987 251.066661,39.7250097 252.1,37.775 C253.133338,35.8249902 254.574991,34.3083387 256.425,33.225 C258.275009,32.1416612 260.416654,31.6 262.85,31.6 C265.250012,31.6 267.324991,32.1416612 269.075,33.225 C270.825009,34.3083387 272.166662,35.7333245 273.1,37.5 C274.033338,39.2666755 274.5,41.1666565 274.5,43.2 C274.5,43.5666685 274.491667,43.9333315 274.475,44.3 C274.458333,44.6666685 274.45,45.083331 274.45,45.55 L254.7,45.55 C254.8,47.4500095 255.241663,49.0249938 256.025,50.275 C256.808337,51.5250063 257.791661,52.4666635 258.975,53.1 C260.158339,53.7333365 261.41666,54.05 262.75,54.05 C264.483342,54.05 265.933328,53.650004 267.1,52.85 C268.266673,52.049996 269.116664,50.9666735 269.65,49.6 L273.8,49.6 C273.13333,51.9000115 271.858343,53.8083258 269.975,55.325 C268.091657,56.8416742 265.683348,57.6 262.75,57.6 Z M262.75,35.15 C260.74999,35.15 258.975008,35.7583273 257.425,36.975 C255.874992,38.1916728 254.983334,39.966655 254.75,42.3 L270.35,42.3 C270.25,40.0666555 269.48334,38.316673 268.05,37.05 C266.616659,35.783327 264.85001,35.15 262.75,35.15 Z M290.45,57.6 C288.083322,57.6 285.958343,57.0583387 284.075,55.975 C282.191657,54.8916612 280.708339,53.3750098 279.625,51.425 C278.541661,49.4749903 278,47.200013 278,44.6 C278,41.999987 278.541661,39.7250097 279.625,37.775 C280.708339,35.8249902 282.191657,34.3083387 284.075,33.225 C285.958343,32.1416612 288.083322,31.6 290.45,31.6 C293.383348,31.6 295.858323,32.366659 297.875,33.9 C299.891677,35.433341 301.166664,37.4833205 301.7,40.05 L297.4,40.05 C297.066665,38.516659 296.250006,37.3250042 294.95,36.475 C293.649993,35.6249957 292.133342,35.2 290.4,35.2 C288.999993,35.2 287.683339,35.5499965 286.45,36.25 C285.21666,36.9500035 284.21667,37.999993 283.45,39.4 C282.68333,40.800007 282.3,42.533323 282.3,44.6 C282.3,46.666677 282.68333,48.399993 283.45,49.8 C284.21667,51.200007 285.21666,52.2583298 286.45,52.975 C287.683339,53.6916703 288.999993,54.05 290.4,54.05 C292.133342,54.05 293.649993,53.6250043 294.95,52.775 C296.250006,51.9249958 297.066665,50.7166745 297.4,49.15 L301.7,49.15 C301.199997,51.6500125 299.933343,53.6833255 297.9,55.25 C295.866656,56.8166745 293.383348,57.6 290.45,57.6 Z M306.55,57 L306.55,21 L310.75,21 L310.75,36.45 C311.583337,34.916659 312.766659,33.7250042 314.3,32.875 C315.833341,32.0249957 317.499991,31.6 319.3,31.6 C322.166681,31.6 324.466658,32.4916577 326.2,34.275 C327.933342,36.0583422 328.8,38.7999815 328.8,42.5 L328.8,57 L324.65,57 L324.65,42.95 C324.65,37.7833075 322.566688,35.2 318.4,35.2 C316.233322,35.2 314.416674,35.9749922 312.95,37.525 C311.483326,39.0750077 310.75,41.283319 310.75,44.15 L310.75,57 L306.55,57 Z" id="Combined-Shape" fill="url(#linearGradient-1)"></path>
            </g>
        </g>
    </g>
</svg>