<?xml version="1.0" encoding="UTF-8"?>
<svg width="16px" height="16px" viewBox="0 0 16 16" version="1.1" xmlns="http://www.w3.org/2000/svg" xmlns:xlink="http://www.w3.org/1999/xlink">
    <!-- Generator: Sketch 52.3 (67297) - http://www.bohemiancoding.com/sketch -->
    <title>i-filter-active</title>
    <desc>Created with Sketch.</desc>
    <g id="Intern-Dashboard" stroke="none" stroke-width="1" fill="none" fill-rule="evenodd" stroke-linecap="round" stroke-linejoin="round">
        <g id="Iconen" transform="translate(-469.000000, -530.000000)" stroke-width="1.5">
            <g id="i-filter-active" transform="translate(470.000000, 531.000000)">
                <g id="Vector">
                    <path d="M6,1.5 L14,1.5 M2.327,1.5 L0,1.5 M6,11.816 L14,11.816 M2.327,11.816 L0,11.816 M8,6.658 L0,6.658 M11.673,6.658 L14,6.658" id="Vector-23" stroke="#26A9E0"></path>
                    <path d="M5.69002352,2.84996488 C6.19342182,2.0934107 6.0668958,1.08230376 5.39259529,0.473122192 C4.71829455,-0.1360594 3.69957369,-0.159599369 2.9978546,0.417785988 C2.2961355,0.995171283 2.1230416,1.99935493 2.59095709,2.77835351 C3.05887262,3.55735188 4.02668415,3.87623627 4.86602371,3.52796469 C5.20144537,3.38800905 5.48808982,3.1521534 5.69002352,2.84996488 Z" id="Vector-20" stroke="#1A2030"></path>
                    <path d="M5.69002352,13.1649669 C6.19342182,12.4084127 6.0668958,11.3973058 5.39259529,10.7881242 C4.71829455,10.1789426 3.69957369,10.1554026 2.9978546,10.732788 C2.2961355,11.3101733 2.1230416,12.3143569 2.59095709,13.0933555 C3.05887262,13.8723539 4.02668415,14.1912383 4.86602371,13.8429667 C5.20144537,13.7030111 5.48808982,13.4671554 5.69002352,13.1649669 Z" id="Vector-21" stroke="#1A2030"></path>
                    <path d="M8.30997937,8.00694728 C7.8065813,7.2503931 7.93310711,6.23928616 8.60740775,5.63010459 C9.28170845,5.020923 10.3004293,4.99738303 11.0021483,5.57476839 C11.7038677,6.15215368 11.8769617,7.15633733 11.4090458,7.93533591 C10.9411305,8.71433428 9.97331896,9.03321867 9.1339794,8.68494709 C8.79855781,8.54499145 8.51191318,8.3091358 8.30997937,8.00694728 Z" id="Vector-22" stroke="#1A2030"></path>
                </g>
            </g>
        </g>
    </g>
</svg>