<?xml version="1.0" encoding="UTF-8"?>
<svg width="14px" height="14px" viewBox="0 0 14 14" version="1.1" xmlns="http://www.w3.org/2000/svg" xmlns:xlink="http://www.w3.org/1999/xlink">
    <!-- Generator: Sketch 52.3 (67297) - http://www.bohemiancoding.com/sketch -->
    <title>i-search</title>
    <desc>Created with Sketch.</desc>
    <g id="Intern-Dashboard" stroke="none" stroke-width="1" fill="none" fill-rule="evenodd">
        <g id="Iconen" transform="translate(-993.000000, -776.000000)" fill="#929496" fill-rule="nonzero">
            <g id="i-search" transform="translate(993.000000, 776.000000)">
                <path d="M9.72222222,8.55555556 L9.10777778,8.55555556 L8.89,8.34555556 C9.65222222,7.45888889 10.1111111,6.30777778 10.1111111,5.05555556 C10.1111111,2.26333333 7.84777778,0 5.05555556,0 C2.26333333,0 0,2.26333333 0,5.05555556 C0,7.84777778 2.26333333,10.1111111 5.05555556,10.1111111 C6.30777778,10.1111111 7.45888889,9.65222222 8.34555556,8.89 L8.55555556,9.10777778 L8.55555556,9.72222222 L12.4444444,13.6033333 L13.6033333,12.4444444 L9.72222222,8.55555556 Z M5.05555556,8.55555556 C3.11888889,8.55555556 1.55555556,6.99222222 1.55555556,5.05555556 C1.55555556,3.11888889 3.11888889,1.55555556 5.05555556,1.55555556 C6.99222222,1.55555556 8.55555556,3.11888889 8.55555556,5.05555556 C8.55555556,6.99222222 6.99222222,8.55555556 5.05555556,8.55555556 Z" id="Shape"></path>
            </g>
        </g>
    </g>
</svg>