<?xml version="1.0" encoding="UTF-8"?>
<svg width="70px" height="90px" viewBox="0 0 70 90" version="1.1" xmlns="http://www.w3.org/2000/svg" xmlns:xlink="http://www.w3.org/1999/xlink">
    <!-- Generator: Sketch 52.3 (67297) - http://www.bohemiancoding.com/sketch -->
    <title>linguatech-icoon-wit</title>
    <desc>Created with Sketch.</desc>
    <defs>
        <linearGradient x1="100%" y1="50%" x2="0%" y2="50%" id="linearGradient-1">
            <stop stop-color="#C0D7FC" offset="0%"></stop>
            <stop stop-color="#FFFFFF" offset="100%"></stop>
        </linearGradient>
        <linearGradient x1="100%" y1="50%" x2="0%" y2="50%" id="linearGradient-2">
            <stop stop-color="#4388F7" offset="0%"></stop>
            <stop stop-color="#0460F4" offset="100%"></stop>
        </linearGradient>
        <linearGradient x1="100%" y1="50%" x2="0%" y2="50%" id="linearGradient-3">
            <stop stop-color="#0460F4" offset="0%"></stop>
            <stop stop-color="#0460F4" offset="100%"></stop>
        </linearGradient>
    </defs>
    <g id="Uiteindelijke-logo" stroke="none" stroke-width="1" fill="none" fill-rule="evenodd">
        <g id="Linguatech---Logo-EPS@20x"></g>
        <g id="Blauwe---wit" transform="translate(-86.000000, -105.000000)">
            <g id="Linguatech-logo---wit" transform="translate(86.000000, 105.000000)">
                <g id="linguatech-icoon-wit">
                    <g id="Group" transform="translate(11.000000, 46.000000)" stroke="url(#linearGradient-1)">
                        <g id="5" transform="translate(0.480075, 23.447146)">
                            <path d="M0.348395392,0.305821539 C3.64999777,5.70990954 7.5829025,9.67218418 12.1471096,12.1926454 C16.7113167,14.7131067 21.880626,16.0240996 27.6550375,16.1256242" id="Poot" stroke-width="3"></path>
                            <ellipse id="Rond" stroke-width="2" fill="url(#linearGradient-2)" cx="30.2944932" cy="16.1711947" rx="2.57954545" ry="2.5840708"></ellipse>
                        </g>
                        <g id="1" transform="translate(22.630710, 0.200708)">
                            <path d="M0.475839543,0.752221357 C3.4067942,4.02747718 6.81528486,6.54752609 10.7013115,8.31236809 C14.5873382,10.0772101 18.9747798,10.9260823 23.8636364,10.8589847" id="Poot" stroke-width="3"></path>
                            <ellipse id="Rond" stroke-width="2" fill="url(#linearGradient-2)" cx="26.6477273" cy="10.7522124" rx="2.57954545" ry="2.5840708"></ellipse>
                        </g>
                        <g id="2" transform="translate(32.089918, 13.714164) rotate(-1.000000) translate(-32.089918, -13.714164) translate(10.589918, 1.714164)">
                            <path d="M0.262701216,0.212286859 C6.78252185,6.22209291 12.6832707,10.6818302 17.9649478,13.5914989 C23.2466248,16.5011675 29.057733,18.530595 35.3982724,19.6797816" id="Poot" stroke-width="3"></path>
                            <ellipse id="Rond" stroke-width="2" fill="url(#linearGradient-2)" cx="38.4725231" cy="20.2155473" rx="2.57954545" ry="2.5840708"></ellipse>
                        </g>
                        <g id="3" transform="translate(14.083538, 14.836415) rotate(-2.000000) translate(-14.083538, -14.836415) translate(3.583538, 5.836415)">
                            <path d="M3.55271368e-15,0.128029461 C2.29485649,2.79471614 4.64306045,5.12731383 7.0446119,7.12582255 C9.44616335,9.12433127 11.8289456,10.6999622 14.1929588,11.8527154" id="Poot" stroke-width="3"></path>
                            <ellipse id="Rond" stroke-width="2" fill="url(#linearGradient-2)" cx="16.6122725" cy="13.4982186" rx="2.57954545" ry="2.5840708"></ellipse>
                        </g>
                        <g id="4" transform="translate(14.317893, 22.993169) rotate(-2.000000) translate(-14.317893, -22.993169) translate(0.817893, 13.493169)">
                            <path d="M0.194291264,0.216582781 C3.18941621,4.42378677 6.40260602,7.77152421 9.83386071,10.2597951 C13.2651154,12.748066 16.8197578,14.3082125 20.4977881,14.9402348" id="Poot" stroke-width="3"></path>
                            <ellipse id="Rond" stroke-width="2" fill="url(#linearGradient-2)" cx="23.2800375" cy="15.3948498" rx="2.57954545" ry="2.5840708"></ellipse>
                        </g>
                    </g>
                    <circle id="Oog-achtergrond" fill="#C0D7FC" cx="43.7962292" cy="28.9570149" r="8"></circle>
                    <circle id="Oog-achtergrond" fill="#C0D7FC" cx="19.2407126" cy="29.0031386" r="8"></circle>
                    <ellipse id="Iris-rechts" fill="url(#linearGradient-3)" cx="43.75" cy="28.6725664" rx="3.18181818" ry="3.18584071"></ellipse>
                    <path d="M50.3124224,32.163704 C49.1732758,33.8861609 47.266019,34.9222163 45.1596954,34.9222163 C41.7953907,34.9222163 39.0532644,32.2414377 39.0532644,28.9518731 C39.0532644,25.9085344 41.4507856,23.3183959 44.5369115,23.020308 L44.5369115,21.2072111 L44.5236656,21 C40.3116239,21.3237821 37,24.7558488 37,28.9515771 C37,33.3548125 40.6558657,36.9292035 45.1594683,36.9292035 C48.100056,36.9292035 50.6830802,35.4010218 52.1136364,33.121848 L51.8222268,32.9405383 L50.3124224,32.163704 Z" id="Path" fill="#FEFEFF" transform="translate(44.556818, 28.964602) scale(-1, 1) translate(-44.556818, -28.964602) "></path>
                    <ellipse id="Iris-links" fill="url(#linearGradient-3)" cx="19.1818182" cy="28.6758407" rx="3.18181818" ry="3.18584071"></ellipse>
                    <path d="M24.3124224,32.163704 C23.1732758,33.8861609 21.266019,34.9222163 19.1596954,34.9222163 C15.7953907,34.9222163 13.0532644,32.2414377 13.0532644,28.9518731 C13.0532644,25.9085344 15.4507856,23.3183959 18.5369115,23.020308 L18.5369115,21.2072111 L18.5236656,21 C14.3116239,21.3237821 11,24.7558488 11,28.9515771 C11,33.3548125 14.6558657,36.9292035 19.1594683,36.9292035 C22.100056,36.9292035 24.6830802,35.4010218 26.1136364,33.121848 L25.8222268,32.9405383 L24.3124224,32.163704 Z" id="Ooglid-links" fill="#FEFEFF"></path>
                    <path d="M26.400515,49.6017656 C26.3786899,49.6016656 26.3568531,49.6016156 26.3350046,49.6016156 C23.7859864,49.6016156 21.3960779,50.2828454 19.3374075,51.4731766 C18.2821174,52.0459918 17.4483811,52.7008233 16.7861736,53.363388 C14.0473887,55.9188595 12.3350046,59.5602632 12.3350046,63.6016156 C12.3350046,66.4562969 13.189408,69.1114215 14.6564428,71.3252174 C14.6731691,71.5168517 14.6902105,71.7104205 14.7075673,71.9059238 L11,71.278245 C3.66666667,60.8808532 -6.47498737e-15,49.3239913 -7.10542736e-15,36.6076591 C-7.10542736e-15,23.891327 4.2750258,11.6887739 12.8250774,7.10542736e-15 C18.9984258,4.71081075 25.2480561,7.06621612 31.5739681,7.06621612 C37.8998801,7.06621612 44.231478,4.71081075 50.5687617,7.10542736e-15 C55.4655866,5.71648325 58.504333,11.7298362 59.6850009,18.0400588 C60.8656688,24.3502814 59.8120271,28.9465611 56.5240759,31.828898 C56.8633597,28.2330934 56.5614731,25.3434215 55.618416,23.1598822 C54.675359,20.976343 52.8431666,19.2697352 50.121839,18.0400588 L50.5687617,14.6267248 C46.5669165,15.723826 42.6481269,18.8058779 38.8123931,23.8728806 C34.9766593,28.9398833 32.5638509,35.0594588 31.5739681,42.231607 C29.0732968,33.4377194 26.5358065,27.3181439 23.9614971,23.8728806 C21.3871877,20.4276173 17.6750478,17.3455654 12.8250774,14.6267248 L13.4507086,18.0400588 C9.420293,20.4268611 7.51100035,24.4750796 7.72283061,30.1847143 C8.040576,38.7491663 17.5946202,44.178961 25.2142059,44.9304011 C32.8337917,45.6818412 44.1581823,43.6177853 52.4365979,40.9622043 C57.9555416,39.1918169 63.2745965,35.5993203 68.3937626,30.1847143 C69.9870987,35.3988907 69.7326845,39.4145216 67.6305198,42.231607 C64.4772727,46.457235 62.8074623,47.2039034 59.6850009,48.0566871 C53.6275995,49.6400434 35.3358392,48.7106681 26.400515,49.6017656 Z" id="Lijf" fill="url(#linearGradient-1)"></path>
                </g>
            </g>
        </g>
    </g>
</svg>