<?xml version="1.0" encoding="UTF-8"?>
<svg width="531px" height="24px" viewBox="0 0 531 24" version="1.1" xmlns="http://www.w3.org/2000/svg" xmlns:xlink="http://www.w3.org/1999/xlink">
    <!-- Generator: Sketch 52.3 (67297) - http://www.bohemiancoding.com/sketch -->
    <title>divider</title>
    <desc>Created with Sketch.</desc>
    <g id="Email-handtekening" stroke="none" stroke-width="1" fill="none" fill-rule="evenodd">
        <g id="Fiducia" transform="translate(-80.000000, -1315.000000)">
            <g id="Group-5" transform="translate(80.000000, 1310.000000)">
                <g id="divider" transform="translate(0.000000, 5.000000)">
                    <path d="M8.6,12 L522,12" id="Line" stroke="#8197D4" stroke-linecap="square"></path>
                    <path d="M11.2761957,0.555672316 C11.3368873,0.391696471 11.4466908,0.250400651 11.5905524,0.150986178 C11.7344141,0.0515723182 11.905386,-0.00113805301 12.0802406,1.86371246e-05 C12.2550951,0.00117532862 12.4253859,0.0561429944 12.5678852,0.157451102 C12.7104526,0.258759891 12.8182808,0.401495691 12.8768608,0.566260324 L13.6761375,2.79559521 C14.3021264,4.54371317 15.30221,6.13412132 16.6065011,7.45574228 C17.910724,8.77740412 19.4877528,9.79840032 21.2274433,10.4474812 L23.4443566,11.2761849 C23.6083126,11.3369447 23.7495858,11.4466801 23.8490356,11.5905419 C23.9484173,11.7344037 24.0011393,11.9053757 23.9999813,12.0802304 C23.9988233,12.2550852 23.9438535,12.4253761 23.8425645,12.5678755 C23.7412075,12.7104431 23.5985038,12.8182713 23.4337305,12.8768513 L21.2061229,13.6761288 C19.4579859,14.3021863 17.8676064,15.3022026 16.5459457,16.6064948 C15.224285,17.910787 14.2032896,19.4878171 13.5542093,21.227509 L12.7255063,23.4443561 C12.6648147,23.6083122 12.5550112,23.7495856 12.4111496,23.8490355 C12.2672879,23.9484172 12.096316,24.0011393 11.9214615,23.9999813 C11.7466069,23.9988233 11.5763161,23.9438534 11.4338168,23.8425644 C11.2913175,23.7412754 11.1834213,23.5985035 11.1248412,23.43373 L10.3255645,21.2061205 C9.69957562,19.4579821 8.699492,17.8676012 7.39520094,16.5459394 C6.09095076,15.2243456 4.51392201,14.2033494 2.77423833,13.5542005 L0.5556718,12.7255649 C0.391696095,12.6648051 0.250400395,12.5550015 0.150986006,12.4111397 C0.051572299,12.2673461 -0.00113805469,12.0963059 1.86371864e-05,11.9214512 C0.00117532497,11.7465965 0.0561429713,11.5763737 0.157451606,11.4338061 C0.258759628,11.2913067 0.401495307,11.1834104 0.566259799,11.1248303 L2.79559279,10.3255529 C4.54370927,9.69956347 6.13411606,8.699479 7.45575634,7.39525495 C8.77741705,6.09095598 9.79841238,4.51392588 10.4474927,2.77424073 L11.2761957,0.555672316 Z" id="Path" fill="#8197D4"></path>
                    <path d="M521.457147,3.41675424 C521.502665,3.29377235 521.585018,3.18780049 521.692914,3.11323963 C521.800811,3.03867924 521.92904,2.99914646 522.06018,3.00001398 C522.191321,3.0008815 522.319039,3.04210725 522.425914,3.11808833 C522.532839,3.19406992 522.613711,3.30112177 522.657646,3.42469524 L523.257103,5.09669641 C523.726595,6.40778488 524.476658,7.60059099 525.454876,8.59180671 C526.433043,9.58305309 527.615815,10.3488002 528.920582,10.8356109 L530.583267,11.4571386 C530.706234,11.5027085 530.812189,11.5850101 530.886777,11.6929064 C530.961313,11.8008027 531.000854,11.9290318 530.999986,12.0601728 C530.999118,12.1913139 530.95789,12.319032 530.881923,12.4259066 C530.805906,12.5328323 530.698878,12.6137034 530.575298,12.6576385 L528.904592,13.2570966 C527.593489,13.7266397 526.400705,14.476652 525.409459,15.4548711 C524.418214,16.4330902 523.652467,17.6158628 523.165657,18.9206318 L522.54413,20.5832671 C522.498611,20.7062342 522.416258,20.8121892 522.308362,20.8867766 C522.200466,20.9613129 522.072237,21.0008545 521.941096,20.999986 C521.809955,20.9991175 521.682237,20.9578901 521.575363,20.8819233 C521.468488,20.8059565 521.387566,20.6988776 521.343631,20.5752975 L520.744173,18.9045904 C520.274682,17.5934866 519.524619,16.4007009 518.546401,15.4094545 C517.568213,14.4182592 516.385442,13.6525121 515.080679,13.1656504 L513.416754,12.5441737 C513.293772,12.4986038 513.1878,12.4162511 513.11324,12.3083548 C513.038679,12.2005096 512.999146,12.0722294 513.000014,11.9410884 C513.000881,11.8099474 513.042107,11.6822803 513.118089,11.5753546 C513.19407,11.46848 513.301121,11.3875578 513.424695,11.3436227 L515.096695,10.7441647 C516.407782,10.2746726 517.600587,9.52460925 518.591817,8.54644121 C519.583063,7.56821698 520.348809,6.38544441 520.83562,5.08068054 L521.457147,3.41675424 Z" id="Path-Copy-4" fill="#8197D4"></path>
                </g>
            </g>
        </g>
    </g>
</svg>