<?xml version="1.0" encoding="UTF-8"?>
<svg width="8px" height="5px" viewBox="0 0 8 5" version="1.1" xmlns="http://www.w3.org/2000/svg" xmlns:xlink="http://www.w3.org/1999/xlink">
    <!-- Generator: Sketch 52.3 (67297) - http://www.bohemiancoding.com/sketch -->
    <title>i-pijl-beneden</title>
    <desc>Created with Sketch.</desc>
    <g id="Intern-Dashboard" stroke="none" stroke-width="1" fill="none" fill-rule="evenodd">
        <g id="Iconen" transform="translate(-468.000000, -865.000000)" fill="#1A2030">
            <g id="i-pijl-beneden" transform="translate(468.000000, 865.000000)">
                <g id="Path-2">
                    <path d="M7.85351458,0.162706677 C7.75969299,0.0585363066 7.63247113,0 7.49978216,0 C7.36709319,0 7.23987133,0.0585363066 7.14604974,0.162706677 L3.99702775,3.65875727 L0.848005754,0.162706677 C0.720898268,0.0264140401 0.53850776,-0.0254235136 0.368060833,0.0264140401 C0.19772828,0.0783754095 0.0645961057,0.226201966 0.0177882513,0.415322683 C-0.0288995096,0.604567216 0.0177882513,0.807088614 0.14054092,0.948206893 L3.64326674,4.83729332 C3.73708832,4.94146369 3.86431018,5 3.99699915,5 C4.12968813,5 4.25690999,4.94146369 4.35073157,4.83729332 L7.85345739,0.948206893 C7.94727897,0.844036522 8,0.702781729 8,0.555456785 C8,0.408131842 7.94727897,0.266877048 7.85345739,0.162706677 L7.85351458,0.162706677 Z" id="Path"></path>
                </g>
            </g>
        </g>
    </g>
</svg>