<?xml version="1.0" encoding="UTF-8"?>
<svg width="16px" height="16px" viewBox="0 0 16 16" version="1.1" xmlns="http://www.w3.org/2000/svg" xmlns:xlink="http://www.w3.org/1999/xlink">
    <!-- Generator: Sketch 52.3 (67297) - http://www.bohemiancoding.com/sketch -->
    <title>i-sync-grijs</title>
    <desc>Created with Sketch.</desc>
    <g id="Intern-Dashboard" stroke="none" stroke-width="1" fill="none" fill-rule="evenodd" stroke-linecap="round" stroke-linejoin="round">
        <g id="Iconen" transform="translate(-579.000000, -530.000000)" stroke="#929496" stroke-width="1.5">
            <g id="i-sync-grijs" transform="translate(580.000000, 531.000000)">
                <path d="M0.14499643,7.0006027 C0.143623328,5.62111644 0.5408901,4.27061757 1.28900011,3.11160269 C2.02538182,1.96848953 3.08589649,1.07091664 4.33500018,0.533602739 C5.5707522,0.00401920744 6.93876673,-0.135538438 8.25600017,0.133602743 C9.58044435,0.408669654 10.7911531,1.076755 11.7300006,2.05060275 C12.5310808,2.87966754 13.1165261,3.89260812 13.4350004,5.00060261 M13.435,5.0006028 L14.145,2.2686028 M13.435,5.0006025 L10.786,4.2686025 M14.145004,7.0006027 C14.1463782,8.38008903 13.7491101,9.73058769 13.0010005,10.8896027 C12.2646186,12.0327161 11.2041042,12.9302889 9.95500025,13.4676027 C8.7192477,13.9971864 7.35123423,14.1367441 6.034,13.8676027 C4.70955608,13.5925354 3.49884734,12.9244504 2.56000013,11.9506029 C1.75891949,11.1215379 1.17347421,10.1085974 0.855,9.00060265 M0.855,9.000603 L0.145,11.732603 M0.855,9.000603 L3.504,9.732603" id="Vector-64"></path>
            </g>
        </g>
    </g>
</svg>