<?xml version="1.0" encoding="UTF-8"?>
<svg width="24px" height="24px" viewBox="0 0 24 24" version="1.1" xmlns="http://www.w3.org/2000/svg" xmlns:xlink="http://www.w3.org/1999/xlink">
    <!-- Generator: Sketch 52.3 (67297) - http://www.bohemiancoding.com/sketch -->
    <title>i-analyse-verkoop-aanmaken</title>
    <desc>Created with Sketch.</desc>
    <g id="Intern-Dashboard" stroke="none" stroke-width="1" fill="none" fill-rule="evenodd" stroke-linecap="round" stroke-linejoin="round">
        <g id="Iconen" transform="translate(-940.000000, -340.000000)" stroke-width="2.09999996">
            <g id="i-analyse-verkoop-aanmaken" transform="translate(942.000000, 342.000000)">
                <path d="M6.86441652,5.74261635 C5.89725287,7.19407601 5.02723425,8.64696423 4.49293709,9.59984211 L3.1514796,8.20695486 C2.31697597,7.32549561 2.31697597,5.94548987 3.1514796,5.06403031 C3.5464594,4.64969879 4.09336774,4.41442499 4.66579792,4.41258773 L7.78729357,4.41258773 C7.47585825,4.83973976 7.16585179,5.28546362 6.86441652,5.74261635 Z" id="Vector-50" stroke="#26A9E0"></path>
                <path d="M14.2574912,13.1355767 C12.8060314,14.1027403 11.3531431,14.972759 10.4002655,15.5070562 L11.7931526,16.8485137 C12.6746122,17.6830175 14.0546177,17.6830175 14.9360772,16.8485137 C15.3504089,16.4535338 15.5856825,15.9066254 15.5875198,15.3341954 L15.5875198,12.2126997 C15.1603679,12.524135 14.714644,12.8341417 14.2574912,13.1355767 Z" id="Vector-51" stroke="#26A9E0"></path>
                <path d="M4.49295374,9.59406156 L7.4530175,12.5469823 L10.405938,15.5070458 M7.78731028,4.4039501 C8.53374173,3.29316044 9.40517469,2.27169507 10.3845088,1.35959907 C12.2545489,-0.194720088 17.4860895,-0.103289534 19.8661402,0.133858419 C20.1032874,2.51390959 20.1947189,7.74545122 18.6403997,9.61691919 C17.7283042,10.5962537 16.7068386,11.467687 15.5960486,12.2141183" id="Vector-52" stroke="#26A9E0"></path>
                <path d="M3.31292837,11.7141061 L0,15.0284631" id="Vector-52-path" stroke="#1A2030"></path>
                <path d="M5.7972675,14.2013039 L4.14294622,15.8570538" id="Vector-52-path" stroke="#1A2030"></path>
                <path d="M8.28589243,16.6870716 L4.97153546,20" id="Vector-52-path" stroke="#1A2030"></path>
                <path d="M16.1874909,3.81250883 L14.42031,5.57968968" id="Vector-52-path" stroke="#1A2030"></path>
            </g>
        </g>
    </g>
</svg>