<?xml version="1.0" encoding="UTF-8"?>
<svg width="23px" height="23px" viewBox="0 0 23 23" version="1.1" xmlns="http://www.w3.org/2000/svg" xmlns:xlink="http://www.w3.org/1999/xlink">
    <!-- Generator: Sketch 52.3 (67297) - http://www.bohemiancoding.com/sketch -->
    <title>i-email-link-click</title>
    <desc>Created with Sketch.</desc>
    <g id="Intern-Dashboard" stroke="none" stroke-width="1" fill="none" fill-rule="evenodd" stroke-linecap="round" stroke-linejoin="round">
        <g id="Iconen" transform="translate(-989.000000, -195.000000)" stroke-width="2.09999996">
            <g id="i-email-link-click" transform="translate(991.000000, 197.000000)">
                <path d="M14.6869159,5.22557835 L4.58079634,3.75556491 C4.35627974,3.73565453 4.13447858,3.81623216 3.97509829,3.97560748 C3.81571802,4.13498282 3.73513791,4.35677713 3.7550489,4.58128673 L5.22510795,14.6885218 C5.24541709,14.9882986 5.42299994,15.2548888 5.6918097,15.3891425 C5.96061933,15.5233974 6.28043243,15.5052247 6.53230316,15.341385 C6.59541209,15.2912565 6.64910653,15.2303074 6.69088098,15.161384 L10.0581589,10.0584798 L15.1583635,6.69130605 C15.2272894,6.64953302 15.2882394,6.59583997 15.3383706,6.5327332 C15.5021269,6.28108012 15.5204435,5.96155289 15.3865213,5.69283533 C15.2525994,5.42411764 14.986444,5.2463564 14.6869159,5.22557835 Z" id="Vector-30" stroke="#26A9E0"></path>
                <path d="M10.058173,10.0584805 L20,20" id="Vector-31" stroke="#26A9E0"></path>
                <path d="M6.76089806,1.18839953 L6.64946494,1.07554134 C5.10957373,-0.401478571 2.66396326,-0.350956283 1.18638914,1.18839953 C-0.350880941,2.66651662 -0.400742362,5.11028981 1.07495609,6.6498778 L1.18638914,6.76130753" id="Vector-31-path" stroke="#1A2030"></path>
            </g>
        </g>
    </g>
</svg>