<?xml version="1.0" encoding="UTF-8"?>
<svg width="13px" height="15px" viewBox="0 0 13 15" version="1.1" xmlns="http://www.w3.org/2000/svg" xmlns:xlink="http://www.w3.org/1999/xlink">
    <!-- Generator: Sketch 52.3 (67297) - http://www.bohemiancoding.com/sketch -->
    <title>i-adres</title>
    <desc>Created with Sketch.</desc>
    <g id="Email-handtekening" stroke="none" stroke-width="1" fill="none" fill-rule="evenodd">
        <g id="Linguatech" transform="translate(-81.000000, -1391.000000)">
            <g id="Group-11" transform="translate(74.000000, 1310.000000)">
                <g id="i-adres" transform="translate(8.000000, 81.000000)">
                    <path d="M5.74322222,11.2026667 C6.6495,10.6898667 9.77777778,8.67753333 9.77777778,5.33333333 C9.77777778,2.75600667 7.86255556,0.666666667 5.5,0.666666667 C3.13745056,0.666666667 1.22222222,2.75600667 1.22222222,5.33333333 C1.22222222,8.67753333 4.35051833,10.6898667 5.25675333,11.2026667 C5.411285,11.2900667 5.58873333,11.2900667 5.74322222,11.2026667 Z M5.5,7.33333333 C6.51255,7.33333333 7.33333333,6.4379 7.33333333,5.33333333 C7.33333333,4.22876667 6.51255,3.33333333 5.5,3.33333333 C4.48748056,3.33333333 3.66666667,4.22876667 3.66666667,5.33333333 C3.66666667,6.4379 4.48748056,7.33333333 5.5,7.33333333 Z" id="Shape" fill="#0460F4"></path>
                    <path d="M5.74322222,11.2026667 L5.91207222,11.5577333 L5.74322222,11.2026667 Z M5.25675333,11.2026667 L5.08792778,11.5577333 L5.25675333,11.2026667 Z M9.41111111,5.33333333 C9.41111111,6.86046667 8.69782222,8.1042 7.83994444,9.04813333 C6.98243333,9.99173333 6.01107222,10.6004667 5.57443333,10.8475333 L5.91207222,11.5577333 C6.38165,11.292 7.42756667,10.6382 8.36073333,9.6114 C9.29359444,8.58493333 10.1444444,7.1504 10.1444444,5.33333333 L9.41111111,5.33333333 Z M5.5,1.06666667 C7.66003333,1.06666667 9.41111111,2.97692 9.41111111,5.33333333 L10.1444444,5.33333333 C10.1444444,2.53509333 8.06507778,0.266666667 5.5,0.266666667 L5.5,1.06666667 Z M1.58888889,5.33333333 C1.58888889,2.97692 3.33995444,1.06666667 5.5,1.06666667 L5.5,0.266666667 C2.93494667,0.266666667 0.855555556,2.53509333 0.855555556,5.33333333 L1.58888889,5.33333333 Z M5.42557889,10.8475333 C4.98891556,10.6004667 4.01757889,9.99173333 3.16003722,9.04813333 C2.30215944,8.1042 1.58888889,6.86046667 1.58888889,5.33333333 L0.855555556,5.33333333 C0.855555556,7.1504 1.70643611,8.58493333 2.63926056,9.6114 C3.57243333,10.6382 4.61835611,11.292 5.08792778,11.5577333 L5.42557889,10.8475333 Z M5.57443333,10.8475333 C5.52572778,10.8751333 5.47425389,10.8751333 5.42557889,10.8475333 L5.08792778,11.5577333 C5.34831,11.7050667 5.65167778,11.7050667 5.91207222,11.5577333 L5.57443333,10.8475333 Z M6.96666667,5.33333333 C6.96666667,6.21698667 6.31002778,6.93333333 5.5,6.93333333 L5.5,7.73333333 C6.71501111,7.73333333 7.7,6.65882 7.7,5.33333333 L6.96666667,5.33333333 Z M5.5,3.73333333 C6.31002778,3.73333333 6.96666667,4.44968 6.96666667,5.33333333 L7.7,5.33333333 C7.7,4.00785333 6.71501111,2.93333333 5.5,2.93333333 L5.5,3.73333333 Z M4.03333333,5.33333333 C4.03333333,4.44968 4.68998444,3.73333333 5.5,3.73333333 L5.5,2.93333333 C4.28497667,2.93333333 3.3,4.00785333 3.3,5.33333333 L4.03333333,5.33333333 Z M5.5,6.93333333 C4.68998444,6.93333333 4.03333333,6.21698667 4.03333333,5.33333333 L3.3,5.33333333 C3.3,6.65882 4.28497667,7.73333333 5.5,7.73333333 L5.5,6.93333333 Z" id="Shape" fill="#333333" fill-rule="nonzero"></path>
                    <path d="M10.2631222,11 C10.7458389,11.3040667 11,11.6489333 11,12 C11,12.3510667 10.7458389,12.6959333 10.2631222,13 C9.78040556,13.3040667 9.08612222,13.5565333 8.25,13.7320667 C7.41387778,13.9076 6.46543333,14 5.5,14 C4.53454833,14 3.58610389,13.9076 2.75,13.7320667 C1.91389611,13.5565333 1.21958833,13.3040667 0.736859444,13 C0.254136667,12.6959333 0,12.3510667 0,12 C0,11.6489333 0.254136667,11.3040667 0.736859444,11" id="Path" stroke="#2E2E2E" stroke-width="0.748799928" stroke-linecap="round"></path>
                </g>
            </g>
        </g>
    </g>
</svg>