<?xml version="1.0" encoding="UTF-8"?>
<svg width="14px" height="14px" viewBox="0 0 14 14" version="1.1" xmlns="http://www.w3.org/2000/svg" xmlns:xlink="http://www.w3.org/1999/xlink">
    <!-- Generator: Sketch 52.3 (67297) - http://www.bohemiancoding.com/sketch -->
    <title>i-telefoon</title>
    <desc>Created with Sketch.</desc>
    <g id="Email-handtekening" stroke="none" stroke-width="1" fill="none" fill-rule="evenodd">
        <g id="Linguatech" transform="translate(-80.000000, -1316.000000)" fill="#0460F4" stroke="#2E2E2E" stroke-width="0.9">
            <g id="Group-11" transform="translate(74.000000, 1310.000000)">
                <g id="i-telefoon" transform="translate(6.000000, 7.000000)">
                    <path d="M10.4819,8.18778235 L12.5069176,10.2128 C12.7792294,10.4851118 12.7792294,10.9266529 12.5069176,11.1989647 C11.0347059,12.6711765 8.70395882,12.8368118 7.03834529,11.5875882 L5.83361235,10.6840118 C4.50032471,9.68408235 3.31593294,8.49970588 2.31596529,7.16636471 L1.41241941,5.96165471 C0.163193588,4.29602588 0.328834235,1.96528647 1.80105824,0.493059412 C2.07337,0.220747647 2.51486529,0.220747647 2.78717706,0.493059412 L4.81221,2.51809235 C5.11085059,2.81673294 5.11085059,3.30091412 4.81221,3.59955471 L4.03133824,4.38042647 C3.90723412,4.50453059 3.87647,4.69411647 3.95495941,4.85108765 C4.86240529,6.66598706 6.33401294,8.13761765 8.14893529,9.04501765 C8.30585294,9.12355294 8.4955,9.09273529 8.61953529,8.9687 L9.40045294,8.18778235 C9.69907059,7.88916471 10.1832824,7.88916471 10.4819,8.18778235 Z" id="Path"></path>
                </g>
            </g>
        </g>
    </g>
</svg>