<?xml version="1.0" encoding="UTF-8"?>
<svg width="14px" height="14px" viewBox="0 0 14 14" version="1.1" xmlns="http://www.w3.org/2000/svg" xmlns:xlink="http://www.w3.org/1999/xlink">
    <!-- Generator: Sketch 52.3 (67297) - http://www.bohemiancoding.com/sketch -->
    <title>i-right</title>
    <desc>Created with Sketch.</desc>
    <g id="Email-handtekening" stroke="none" stroke-width="1" fill="none" fill-rule="evenodd">
        <g id="LinQuake" transform="translate(-100.000000, -1550.000000)" fill="#676767">
            <g id="Group-5" transform="translate(77.000000, 1308.000000)">
                <g id="Group-11" transform="translate(3.000000, 52.000000)">
                    <g id="Group-10" transform="translate(0.000000, 130.000000)">
                        <g id="Group" transform="translate(20.000000, 57.000000)">
                            <g id="i-right" transform="translate(0.000000, 3.000000)">
                                <g id="Group">
                                    <g>
                                        <path d="M7,14 C10.8554444,14 14,10.8671111 14,7 C14,3.13288889 10.8554444,0 7,0 C3.14455556,0 0,3.14455556 0,7 C0,10.8554444 3.14455556,14 7,14 Z M7,0.987777778 C10.3133333,0.987777778 13.0122222,3.68666667 13.0122222,7 C13.0122222,10.3133333 10.3133333,13.0122222 7,13.0122222 C3.68666667,13.0122222 0.987777778,10.3133333 0.987777778,7 C0.987777778,3.68666667 3.68666667,0.987777778 7,0.987777778 Z" id="Shape" fill-rule="nonzero"></path>
                                        <path d="M5.38533333,10.4937778 C5.47738997,10.587712 5.60382006,10.6399698 5.73533333,10.6384444 C5.86611721,10.637436 5.99137063,10.5855493 6.08455556,10.4937778 L9.26566667,7.31266667 C9.35892379,7.22085486 9.41086075,7.0950832 9.40955556,6.96422222 C9.41108091,6.83270895 9.35882313,6.70627886 9.26488889,6.61422222 L6.08377778,3.43311111 C5.88883921,3.25040013 5.58404063,3.25550281 5.39532717,3.44463656 C5.20661371,3.63377032 5.20218913,3.9385795 5.38533333,4.13311111 L8.21644444,6.96422222 L5.38533333,9.79533333 C5.19289937,9.98838389 5.19289937,10.3007272 5.38533333,10.4937778 Z" id="Path"></path>
                                    </g>
                                </g>
                            </g>
                        </g>
                    </g>
                </g>
            </g>
        </g>
    </g>
</svg>