<?xml version="1.0" encoding="UTF-8"?>
<svg width="20px" height="20px" viewBox="0 0 20 20" version="1.1" xmlns="http://www.w3.org/2000/svg" xmlns:xlink="http://www.w3.org/1999/xlink">
    <!-- Generator: Sketch 52.3 (67297) - http://www.bohemiancoding.com/sketch -->
    <title>i-fav-het-vertaalcollectief</title>
    <desc>Created with Sketch.</desc>
    <g id="Intern-Dashboard" stroke="none" stroke-width="1" fill="none" fill-rule="evenodd">
        <g id="Iconen" transform="translate(-227.000000, -654.000000)">
            <g id="i-fav-het-vertaalcollectief" transform="translate(227.000000, 654.000000)">
                <rect id="Rectangle" fill-opacity="0.01" fill="#FFFFFF" x="0" y="0" width="20" height="20"></rect>
                <path d="M1,14.8082661 C1,14.3395833 3.3170441,11.3144486 4.30393325,10.5049056 C4.90464839,10.014919 5.48390942,9.50362862 5.56972586,9.35450227 C5.82717521,8.94973073 7.35041716,8.22540272 8.35876043,8.01236507 C8.70202622,7.95555503 9.11680572,7.74251738 9.60309893,7.37325212 L9.17401669,6.75544293 C8.93802145,6.43588646 8.78784267,6.09502621 8.87365912,6.00981115 C8.93802145,5.94589986 9.1954708,6.20154504 9.43146603,6.56370905 L9.86054827,7.26673329 L10.4612634,6.52110152 C10.8688915,6.05241868 11.0834327,5.90329233 11.0834327,6.13763374 C11.0834327,6.30806386 10.9332539,6.58501281 10.761621,6.73413917 C10.5899881,6.88326552 10.4398093,7.07499941 10.4398093,7.18151823 C10.4398093,7.28803706 10.9332539,7.92715001 11.4052443,8.01236507 C13.2073897,8.33192154 13.5292014,8.54495919 16.4898689,11.4848788 C17.3051251,12.2944218 17.9058403,13.0187499 17.8414779,13.1039649 C17.7985697,13.2104837 17.8843862,13.4235214 18.0774732,13.5726477 C18.2491061,13.7217741 18.5494636,14.1052419 18.6996424,14.4247983 L19,15 L18.0560191,14.7017473 C16.5542312,14.275672 15.1597139,13.5939515 15.1597139,13.3383063 C15.1597139,13.2104837 15.0738975,13.1465724 14.9666269,13.2104837 C14.6233611,13.4235214 11.5554231,11.2505374 11.2765197,10.5688169 C11.1263409,10.2492604 10.9117998,10.014919 10.8259833,10.0575265 C10.7401669,10.1214378 10.6328963,9.95100769 10.6328963,9.67405874 C10.6114422,9.3971098 10.5899881,9.03494579 10.568534,8.8432119 C10.5470799,8.65147802 10.3969011,8.33192154 10.2467223,8.14018766 C9.94636472,7.77802365 9.9034565,7.77802365 9.64600715,8.14018766 C9.49582837,8.35322531 9.36710369,8.8432119 9.36710369,9.22667967 C9.36710369,9.61014745 9.28128725,9.92970392 9.15256257,9.92970392 C9.04529201,9.92970392 8.93802145,10.014919 8.93802145,10.1427416 C8.93802145,10.7818545 6.81406436,12.4435482 4.43265793,13.6578628 C2.88796186,14.4247983 1,15.0852151 1,14.8082661 Z" fill="#000000" transform="translate(10.000000, 10.500000) scale(-1, 1) rotate(-180.000000) translate(-10.000000, -10.500000) "></path>
            </g>
        </g>
    </g>
</svg>