<?xml version="1.0" encoding="UTF-8"?>
<svg width="20px" height="20px" viewBox="0 0 20 20" version="1.1" xmlns="http://www.w3.org/2000/svg" xmlns:xlink="http://www.w3.org/1999/xlink">
    <!-- Generator: Sketch 52.3 (67297) - http://www.bohemiancoding.com/sketch -->
    <title>i-fav-textwerk</title>
    <desc>Created with Sketch.</desc>
    <g id="Intern-Dashboard" stroke="none" stroke-width="1" fill="none" fill-rule="evenodd">
        <g id="Iconen" transform="translate(-227.000000, -559.000000)">
            <g id="i-fav-textwerk" transform="translate(227.000000, 559.000000)">
                <rect id="Rectangle" fill-opacity="0.01" fill="#FFFFFF" x="0" y="0" width="20" height="20"></rect>
                <g transform="translate(1.000000, 1.000000)">
                    <g id="Buik" transform="translate(5.000000, 4.616930)">
                        <path d="M3.97619048,11.8178519 C5.82873592,11.8178519 7.43788096,9.32243032 7.43788096,6.16617593 C7.43788096,3.00992154 5.82873592,0.514499993 3.97619048,0.514499993 C2.72022324,0.514499993 1.52776822,1.67369306 0.917178573,3.53970941 C0.654104446,4.34368738 0.514499993,5.23837746 0.514499993,6.16617593 C0.514499993,9.32243032 2.12364503,11.8178519 3.97619048,11.8178519 Z" stroke="#235FA1" stroke-width="1.02899999" fill="#F5F5F5"></path>
                        <g id="Patroon" transform="translate(2.238095, 7.133419)" fill="#91AFD0">
                            <path d="M0.781666667,0.013541406 L0.102619048,0.013541406 C0.0401190476,0.013541406 0.000778571429,0.081833618 0.0310047619,0.137186533 L0.37057619,0.756439864 C0.401733333,0.813304096 0.482461905,0.813304096 0.513619048,0.756439864 L0.853190476,0.137186533 C0.883509524,0.0816450055 0.844075952,0.013541406 0.781669048,0.013541406 L0.781666667,0.013541406 Z" id="Path"></path>
                            <path d="M2.07690476,0.013541406 L1.39785714,0.013541406 C1.33535714,0.013541406 1.29601667,0.081833618 1.32624286,0.137186533 L1.66581429,0.756439864 C1.69697143,0.813304096 1.7777,0.813304096 1.80885714,0.756439864 L2.14842857,0.137186533 C2.17874762,0.0816450055 2.13931405,0.013541406 2.07690714,0.013541406 L2.07690476,0.013541406 Z" id="Path"></path>
                            <path d="M3.37190476,0.013541406 L2.69285714,0.013541406 C2.63035714,0.013541406 2.59101667,0.081833618 2.62124286,0.137186533 L2.96081429,0.756439864 C2.99197143,0.813304096 3.0727,0.813304096 3.10385714,0.756439864 L3.44342857,0.137186533 C3.47384048,0.0816450055 3.4344069,0.013541406 3.37190714,0.013541406 L3.37190476,0.013541406 Z" id="Path"></path>
                            <path d="M1.43285714,1.06300037 L0.753809524,1.06300037 C0.691309524,1.06300037 0.651969048,1.13129258 0.682195238,1.1866455 L1.02176667,1.80589883 C1.05292381,1.86276306 1.13365238,1.86276306 1.16480952,1.80589883 L1.50438095,1.1866455 C1.5347,1.13110397 1.49526643,1.06300037 1.43285952,1.06300037 L1.43285714,1.06300037 Z" id="Path"></path>
                            <path d="M2.72785714,1.06300037 L2.04880952,1.06300037 C1.98630952,1.06300037 1.94696905,1.13129258 1.97719524,1.1866455 L2.31676667,1.80589883 C2.34792381,1.86276306 2.42865238,1.86276306 2.45980952,1.80589883 L2.79938095,1.1866455 C2.82988571,1.13110397 2.79045238,1.06300037 2.72785952,1.06300037 L2.72785714,1.06300037 Z" id="Path"></path>
                        </g>
                    </g>
                    <g id="Oog-Links" transform="translate(2.190476, 2.440633)">
                        <ellipse id="Oog" stroke="#235FA1" stroke-width="1.02899999" fill="#DDEBEF" cx="3.57142857" cy="3.62716231" rx="3.05692858" ry="3.11266232"></ellipse>
                        <ellipse id="Iris" fill="#222222" cx="3.5974026" cy="3.65299963" rx="1.14285714" ry="1.16069194"></ellipse>
                    </g>
                    <g id="Oog-Rechts" transform="translate(8.571429, 2.440633)">
                        <ellipse id="Oog" stroke="#235FA1" stroke-width="1.02899999" fill="#DDEBEF" cx="3.57142857" cy="3.62716231" rx="3.05692858" ry="3.11266232"></ellipse>
                        <ellipse id="Iris" fill="#222222" cx="3.5974026" cy="3.65299963" rx="1.14285714" ry="1.16069194"></ellipse>
                    </g>
                    <polygon id="Neus" fill="#235FA1" points="8.95965155 11.1080955 10.2257941 8.99398818 8.95965155 7.32521163 7.71428571 8.99398818"></polygon>
                    <path d="M17.1990667,0.476947294 C17.1990667,1.25695007 16.5753129,1.8912085 15.8084155,1.8912085 L11.6876767,1.8912085 C10.5229198,1.8912085 9.51019947,2.56182131 9.00030357,3.5422634 C8.49026482,2.56153076 7.47768737,1.8912085 6.31293043,1.8912085 L2.19183448,1.8912085 C1.4247942,1.8912085 0.801076197,1.25691375 0.801076197,0.476947294 L0.801076197,0.121567906 L0,0.121567906 L0,0.476802022 C0,1.54477062 0.742754421,2.43881207 1.73047459,2.65504974 C1.8794719,2.68753733 2.03349068,2.70569526 2.19183448,2.70569526 L6.31293043,2.70569526 C7.54718778,2.70569526 8.6526937,3.36181493 8.6526937,4.61693044 L9.24348015,4.61693044 C9.24348015,3.36181493 10.4534551,2.70569526 11.6878553,2.70569526 L15.8085941,2.70569526 C15.9669379,2.70569526 16.1209567,2.68753624 16.2698111,2.65504974 C17.2572456,2.4389864 18,1.54480694 18,0.476947294 L18,0.121567906 L17.1989238,0.121567906 L17.1990667,0.476947294 Z" id="Wenkbrauw" stroke="#235FA1" stroke-width="0.840000004" fill="#FFFFFF"></path>
                    <rect id="Balkje" fill="#235FA1" x="3" y="16.0615385" width="12" height="1.10769231" rx="0.553846154"></rect>
                    <g id="Poten" transform="translate(6.545455, 16.892308)" fill="#235FA1">
                        <path d="M3.35299235,2.13807134e-14 L4.55146381,2.145506e-14 C4.61911574,2.13224585e-14 4.67803245,0.0461726101 4.69420284,0.111863561 L4.9047619,0.967243283 L3,0.956604394 L3.21034444,0.111495468 C3.22665007,0.0459836901 3.28548186,2.14119503e-14 3.35299235,2.13995488e-14 Z" id="Gear-Copy-3" transform="translate(3.952381, 0.483622) scale(1, -1) translate(-3.952381, -0.483622) "></path>
                        <path d="M0.352992351,2.13807134e-14 L1.55146381,2.145506e-14 C1.61911574,2.13224585e-14 1.67803245,0.0461726101 1.69420284,0.111863561 L1.9047619,0.967243283 L-5.32907052e-15,0.956604394 L0.210344435,0.111495468 C0.22665007,0.0459836901 0.285481857,2.14119503e-14 0.352992351,2.13995488e-14 Z" id="Gear-Copy-4" transform="translate(0.952381, 0.483622) scale(1, -1) translate(-0.952381, -0.483622) "></path>
                    </g>
                    <g id="Handen" transform="translate(4.363636, 12.461538)" fill="#235FA1">
                        <path d="M7.84559673,0.595323348 L9.06382609,0.602199074 C9.13056608,0.602575757 9.18867677,0.647866487 9.20534069,0.712493741 L9.42366411,1.55921184 L7.49438618,1.53781891 L7.70215541,0.706671129 C7.7185893,0.640929963 7.77783371,0.594940891 7.84559673,0.595323348 Z" id="Gear-Copy" transform="translate(8.459025, 1.077266) scale(1, -1) rotate(-294.000000) translate(-8.459025, -1.077266) "></path>
                        <path d="M0.208879059,0.595323348 L1.42710842,0.602199074 C1.49384841,0.602575757 1.5519591,0.647866487 1.56862302,0.712493741 L1.78694644,1.55921184 L-0.142331492,1.53781891 L0.0654377391,0.706671129 C0.0818716295,0.640929963 0.141116036,0.594940891 0.208879059,0.595323348 Z" id="Gear-Copy-2" transform="translate(0.822307, 1.077266) scale(-1, -1) rotate(-294.000000) translate(-0.822307, -1.077266) "></path>
                    </g>
                </g>
            </g>
        </g>
    </g>
</svg>