<?xml version="1.0" encoding="UTF-8"?>
<svg width="20px" height="20px" viewBox="0 0 20 20" version="1.1" xmlns="http://www.w3.org/2000/svg" xmlns:xlink="http://www.w3.org/1999/xlink">
    <!-- Generator: Sketch 52.3 (67297) - http://www.bohemiancoding.com/sketch -->
    <title>i-fav-simply-translate</title>
    <desc>Created with Sketch.</desc>
    <g id="Intern-Dashboard" stroke="none" stroke-width="1" fill="none" fill-rule="evenodd">
        <g id="Iconen" transform="translate(-227.000000, -607.000000)">
            <g id="i-fav-simply-translate" transform="translate(227.000000, 607.000000)">
                <rect id="Rectangle" fill-opacity="0.01" fill="#FFFFFF" x="0" y="0" width="20" height="20"></rect>
                <g transform="translate(1.000000, 2.000000)">
                    <path d="M6.25906646,8.47325843 C6.25906646,7.87214607 5.77354116,7.38258427 5.17237957,7.38258427 C4.57140183,7.38258427 4.08458963,7.87214607 4.08458963,8.47325843 C4.08458963,9.07723596 4.57140183,9.56832584 5.17237957,9.56832584 C5.77354116,9.56851685 6.25906646,9.07742697 6.25906646,8.47325843 Z" id="Path" fill="#424143"></path>
                    <path d="M13.7241329,8.47325843 C13.7241329,7.87214607 13.2365854,7.38258427 12.6361591,7.38258427 C12.0342622,7.38258427 11.54745,7.87214607 11.54745,8.47325843 C11.54745,9.07723596 12.0342622,9.56832584 12.6361591,9.56832584 C13.2367692,9.56851685 13.7241329,9.07742697 13.7241329,8.47325843 Z" id="Path" fill="#424143"></path>
                    <path d="M10.2999018,8.47325843 C10.2999018,7.70233708 9.67392165,7.07448315 8.90197134,7.07448315 C8.13388171,7.07448315 7.50735,7.7027191 7.50735,8.47325843 C7.50735,9.24666292 8.13406555,9.87757303 8.90197134,9.87757303 C9.67410549,9.87757303 10.2999018,9.24666292 10.2999018,8.47325843 Z" id="Path" fill="#939598"></path>
                    <path d="M15.2336552,2.91674157 L17.808171,0.00420224719 L8.33463659,0.0880561798 C6.28774573,0.224247191 4.38020671,1.07902247 2.9578253,2.4938427 L2.95653841,2.49116854 C2.95120701,2.49517978 2.94587561,2.50167416 2.9418311,2.5058764 C2.94054421,2.50702247 2.93723506,2.51103371 2.9352128,2.51237079 L2.93576433,2.51504494 C-0.196526524,5.67819101 -0.319700305,10.7294831 2.5746997,14.0368427 L-4.33431069e-13,16.949573 L9.4746375,16.864 C11.5222637,16.7293371 13.4275966,15.8749438 14.8516326,14.4582135 L14.8542064,14.4622247 C14.8595378,14.4568764 14.8622954,14.4515281 14.8681784,14.4459888 C14.8694652,14.4450337 14.8727744,14.4423596 14.8747966,14.4394944 L14.8742451,14.4381573 C18.0048814,11.2753933 18.1286067,6.2237191 15.2336552,2.91674157 Z M9.4045939,15.3422135 L2.93797043,15.3956966 L4.4050253,13.7379101 L4.03054024,13.3633371 C1.3438811,10.6683596 1.34241037,6.2917191 4.01803902,3.58719101 C5.19701433,2.40865169 6.72308232,1.72559551 8.40320945,1.61079775 L14.8725905,1.55616854 L13.4036973,3.21491011 L13.7779985,3.58948315 C16.4661284,6.28465169 16.4681506,10.6679775 13.7875582,13.3683034 C12.606193,14.5460787 11.0825149,15.2291348 9.4045939,15.3422135 Z" id="Shape" fill="#29AAE1" fill-rule="nonzero"></path>
                </g>
            </g>
        </g>
    </g>
</svg>