<?xml version="1.0" encoding="UTF-8"?>
<svg width="14px" height="10px" viewBox="0 0 14 10" version="1.1" xmlns="http://www.w3.org/2000/svg" xmlns:xlink="http://www.w3.org/1999/xlink">
    <!-- Generator: Sketch 52.3 (67297) - http://www.bohemiancoding.com/sketch -->
    <title>i-right</title>
    <desc>Created with Sketch.</desc>
    <g id="Email-handtekening" stroke="none" stroke-width="1" fill="none" fill-rule="evenodd">
        <g id="Textwerk" transform="translate(-100.000000, -1579.000000)" fill="#1F1F1F" fill-rule="nonzero">
            <g id="Group-5" transform="translate(80.000000, 1310.000000)">
                <g id="Group-11" transform="translate(0.000000, 75.000000)">
                    <g id="Group-10" transform="translate(0.000000, 130.000000)">
                        <g id="Group" transform="translate(20.000000, 59.000000)">
                            <path d="M12.0643319,10.5489517 L0.567670611,10.5489517 C0.257344013,10.5489517 1.77635684e-15,10.2996392 1.77635684e-15,9.99899755 C1.77635684e-15,9.69835593 0.257344013,9.44904337 0.567670611,9.44904337 L12.0641542,9.44904337 L8.43871929,5.93675522 C8.21921999,5.72410627 8.21921999,5.37213565 8.43871929,5.15948671 C8.65821859,4.94683776 9.02152808,4.94683776 9.24102738,5.15948671 L13.8353755,9.61044947 C14.0548748,9.82309841 14.0548748,10.1750687 13.8353755,10.3877177 L9.24102738,14.8386806 C9.12749325,14.9486715 8.98368357,15 8.83987368,15 C8.6960638,15 8.55225342,14.9486715 8.43871929,14.8386806 C8.21921999,14.6260317 8.21921999,14.2740614 8.43871929,14.0614124 L12.0643319,10.5489517 Z" id="i-right"></path>
                        </g>
                    </g>
                </g>
            </g>
        </g>
    </g>
</svg>