<?xml version="1.0" encoding="UTF-8"?>
<svg width="134px" height="37px" viewBox="0 0 134 37" version="1.1" xmlns="http://www.w3.org/2000/svg" xmlns:xlink="http://www.w3.org/1999/xlink">
    <!-- Generator: Sketch 52.3 (67297) - http://www.bohemiancoding.com/sketch -->
    <title>simply-translate-logo</title>
    <desc>Created with Sketch.</desc>
    <g id="Email-handtekening" stroke="none" stroke-width="1" fill="none" fill-rule="evenodd">
        <g id="Simply-Translate" transform="translate(-80.000000, -1485.000000)">
            <g id="Group-5" transform="translate(80.000000, 1308.000000)">
                <g id="Group-11" transform="translate(0.000000, 47.000000)">
                    <g id="Group-10" transform="translate(0.000000, 130.000000)">
                        <g id="simply-translate-logo">
                            <path d="M14.2567625,18.4417978 C14.2567625,17.1334944 13.1508438,16.0679775 11.7815313,16.0679775 C10.4126375,16.0679775 9.3037875,17.1334944 9.3037875,18.4417978 C9.3037875,19.7563371 10.4126375,20.8251798 11.7815313,20.8251798 C13.1508438,20.8255955 14.2567625,19.7567528 14.2567625,18.4417978 Z" id="Path" fill="#424143"></path>
                            <path d="M31.260525,18.4417978 C31.260525,17.1334944 30.15,16.0679775 28.7823625,16.0679775 C27.411375,16.0679775 26.302525,17.1334944 26.302525,18.4417978 C26.302525,19.7563371 27.411375,20.8251798 28.7823625,20.8251798 C30.1504188,20.8255955 31.260525,19.7567528 31.260525,18.4417978 Z" id="Path" fill="#424143"></path>
                            <path d="M23.4608875,18.4417978 C23.4608875,16.7639101 22.0350437,15.3974045 20.2767125,15.3974045 C18.527175,15.3974045 17.100075,16.7647416 17.100075,18.4417978 C17.100075,20.1250899 18.5275938,21.4982472 20.2767125,21.4982472 C22.0354625,21.4982472 23.4608875,20.1250899 23.4608875,18.4417978 Z" id="Path" fill="#939598"></path>
                            <path d="M34.6988812,6.34820225 L40.5630563,0.00914606742 L18.98445,0.191651685 C14.3220875,0.488067416 9.9771375,2.34846067 6.73726875,5.42777528 L6.7343375,5.42195506 C6.72219375,5.43068539 6.71005,5.44482022 6.7008375,5.45396629 C6.69790625,5.45646067 6.69036875,5.46519101 6.6857625,5.46810112 L6.68701875,5.47392135 C-0.44764375,12.3584157 -0.72820625,23.3524045 5.86459375,30.5507753 L0,36.8902472 L21.5811188,36.704 C26.2451562,36.4109101 30.5850813,34.5513483 33.8287188,31.4678764 L33.8345812,31.4766067 C33.846725,31.4649663 33.8530062,31.4533258 33.8664062,31.4412697 C33.8693375,31.439191 33.876875,31.4333708 33.8814812,31.4271348 L33.880225,31.4242247 C41.0111187,24.5405618 41.2929375,13.5457416 34.6988812,6.34820225 Z M21.421575,33.3918764 L6.69204375,33.5082809 L10.0336687,29.9001573 L9.180675,29.0849101 C3.0610625,23.2193708 3.0577125,13.6937416 9.1522,7.80741573 C11.8376437,5.24235955 15.3136875,3.75570787 19.1406437,3.50585393 L33.8764562,3.38695506 L30.5306437,6.9971573 L31.3832187,7.81240449 C37.5061812,13.6783596 37.5107875,23.2185393 31.4049937,29.0957191 C28.7141062,31.6591124 25.2435062,33.145764 21.421575,33.3918764 Z" id="Shape" fill="#29AAE1" fill-rule="nonzero"></path>
                            <g id="Group" transform="translate(45.643750, 2.910112)" fill="#424143">
                                <g transform="translate(0.418750, 24.112360)">
                                    <path d="M2.62765625,6.64420225 C2.6063,6.65251685 2.55646875,6.66457303 2.47271875,6.69034831 C2.3893875,6.71321348 2.2855375,6.73108989 2.159075,6.73940449 C2.031775,6.74813483 1.89568125,6.74273034 1.74241875,6.7161236 C1.592925,6.69242697 1.44594375,6.63505618 1.30356875,6.54276404 C0.87309375,6.26339326 0.65785625,5.7445618 0.65785625,4.97795506 L0.65785625,2.90595506 L0.067,2.90595506 L0.067,2.13976404 L0.65785625,2.13976404 L0.65785625,0.0839775281 L1.45725,0.0839775281 L1.45725,2.13976404 L2.4212125,2.13976404 L2.4212125,2.90595506 L1.45725,2.90595506 L1.45725,4.97795506 C1.45725,5.46602247 1.556075,5.77283146 1.747025,5.9008764 C1.80606875,5.94161798 1.8693,5.96198876 1.9363,5.96739326 C2.0024625,5.97362921 2.06653125,5.97944944 2.1239,5.97362921 C2.18294375,5.97030337 2.252875,5.95616854 2.3374625,5.93247191 L2.62765625,6.64420225 Z" id="Path"></path>
                                    <path d="M6.3859375,1.96557303 C6.5919625,1.96557303 6.77830625,1.97970787 6.94496875,2.02086517 L6.83023125,2.77791011 C6.7134,2.73716854 6.5618125,2.7147191 6.37546875,2.7147191 C6.06643125,2.7147191 5.81936875,2.75795506 5.63595625,2.84858427 C5.45254375,2.93796629 5.31184375,3.04522472 5.21301875,3.16994382 C5.11000625,3.29757303 5.04635625,3.42229213 5.013275,3.54992135 C4.979775,3.67464045 4.96135,3.77649438 4.95590625,3.84924719 L4.95590625,6.58017978 L4.13599375,6.58017978 L4.13599375,2.13934831 L4.95590625,2.13934831 L4.95590625,2.53346067 C4.96176875,2.53055056 4.99694375,2.49937079 5.0559875,2.44075281 C5.1162875,2.37964045 5.2059,2.31603371 5.3223125,2.24660674 C5.43914375,2.1734382 5.58403125,2.10692135 5.7611625,2.05121348 C5.94080625,1.99425843 6.1464125,1.96557303 6.3859375,1.96557303 Z" id="Path"></path>
                                    <path d="M12.6889625,2.13976404 L12.6889625,6.58059551 L11.859,6.58059551 L11.859,6.06134831 C11.65465,6.27586517 11.4121938,6.44423596 11.1362375,6.56562921 C10.85735,6.68452809 10.5587813,6.74605618 10.2376,6.74605618 C9.9151625,6.74605618 9.61575625,6.68494382 9.3331,6.56022472 C9.0542125,6.43841573 8.808825,6.26713483 8.59986875,6.04929213 C8.3909125,5.83768539 8.22550625,5.58533708 8.10323125,5.2951573 C7.97928125,5.00165169 7.9202375,4.6948427 7.9202375,4.36059551 C7.9202375,4.03591011 7.97928125,3.72494382 8.10323125,3.43767416 C8.22550625,3.14458427 8.3909125,2.89223596 8.59986875,2.67688764 C8.808825,2.4598764 9.0542125,2.29150562 9.3331,2.16055056 C9.61491875,2.03541573 9.914325,1.9747191 10.2376,1.9747191 C10.5587813,1.9747191 10.85735,2.03375281 11.1362375,2.15514607 C11.411775,2.27362921 11.6538125,2.44241573 11.859,2.65693258 L11.859,2.14101124 L12.6889625,2.14101124 L12.6889625,2.13976404 Z M10.3046,5.9802809 C10.5160688,5.9802809 10.7195813,5.93704494 10.9076,5.84932584 C11.09855,5.76202247 11.2647938,5.64686517 11.4042375,5.50094382 C11.5461938,5.35834831 11.6588375,5.18748315 11.7388188,4.99001124 C11.8188,4.79253933 11.8585813,4.58342697 11.8585813,4.36017978 C11.8585813,4.1398427 11.8188,3.92782022 11.7388188,3.73034831 C11.6588375,3.53578652 11.5461938,3.36492135 11.4042375,3.21608989 C11.2647938,3.07141573 11.09855,2.95501124 10.9076,2.87103371 C10.7195812,2.78414607 10.5164875,2.74049438 10.3046,2.74049438 C10.0922938,2.74049438 9.8892,2.78414607 9.70034375,2.87103371 C9.51190625,2.95501124 9.34524375,3.071 9.2032875,3.21608989 C9.063425,3.36450562 8.94994375,3.53620225 8.86368125,3.73034831 C8.782025,3.92823596 8.74140625,4.13942697 8.74140625,4.36017978 C8.74140625,4.58342697 8.78244375,4.79295506 8.86368125,4.99001124 C8.94994375,5.18789888 9.06384375,5.35876404 9.2032875,5.50094382 C9.34524375,5.64644944 9.5114875,5.76202247 9.70034375,5.84932584 C9.88961875,5.93662921 10.0922938,5.9802809 10.3046,5.9802809 Z" id="Shape" fill-rule="nonzero"></path>
                                    <path d="M18.949275,3.47259551 C18.9618375,3.54160674 18.9718875,3.60022472 18.976075,3.65219101 C18.9840313,3.70457303 18.9865438,3.7507191 18.9865438,3.79395506 L18.9865438,3.92491011 L18.9865438,6.58101124 L18.1637,6.58101124 L18.1637,3.96232584 C18.1637,3.86379775 18.1549063,3.74157303 18.1327125,3.59980899 C18.1096812,3.45762921 18.0594312,3.32417978 17.9828,3.19322472 C17.90575,3.06517978 17.7880812,2.95251685 17.6344,2.86230337 C17.4811375,2.76959551 17.2734375,2.72303371 17.0175812,2.72303371 C16.7089625,2.72303371 16.4619,2.76668539 16.2784875,2.85606742 C16.095075,2.9462809 15.9539562,3.05395506 15.853875,3.1778427 C15.7537937,3.3067191 15.6888875,3.43102247 15.6549687,3.5615618 C15.6235625,3.68669663 15.6043,3.78855056 15.5980187,3.86005618 L15.5980187,6.58017978 L14.7781063,6.58017978 L14.7781063,2.13934831 L15.5980187,2.13934831 L15.5980187,2.5338764 C15.6043,2.5338764 15.6386375,2.50477528 15.6972625,2.44407865 C15.760075,2.38296629 15.8509437,2.31894382 15.9673563,2.24910112 C16.0892125,2.18008989 16.2366125,2.11897753 16.4124875,2.05786517 C16.5900375,2.0021573 16.7960625,1.97347191 17.0259562,1.97347191 C17.3806375,1.97347191 17.6746,2.02252809 17.9091,2.12479775 C18.1444375,2.22582022 18.3353875,2.35344944 18.4786,2.50435955 C18.624325,2.65485393 18.7319437,2.81740449 18.8031313,2.99533708 C18.8739,3.16994382 18.9237312,3.33 18.949275,3.47259551 Z" id="Path"></path>
                                    <path d="M22.724725,3.86961798 C22.8968313,3.9041236 23.0969938,3.95068539 23.3231188,4.00597753 C23.5484063,4.06417978 23.7619688,4.14566292 23.9679938,4.25292135 C24.1669,4.36267416 24.33775,4.50235955 24.4818,4.6852809 C24.6220813,4.86238202 24.6936875,5.09103371 24.6936875,5.36791011 C24.6936875,5.80068539 24.51195,6.13659551 24.1497313,6.38062921 C23.78165,6.62466292 23.2825,6.74605618 22.6367875,6.74605618 C22.406475,6.74605618 22.1862125,6.72319101 21.9801875,6.67953933 C21.7741625,6.63006742 21.5882375,6.56355056 21.421575,6.47957303 C21.2536562,6.39226966 21.1062563,6.29124719 20.9768625,6.18066292 C20.8474687,6.06425843 20.7524125,5.93746067 20.6858312,5.79403371 L21.4219937,5.54417978 C21.5116062,5.66058427 21.6657062,5.76202247 21.8830375,5.84974157 C22.1020437,5.93704494 22.3553875,5.9802809 22.6372062,5.9802809 C22.7335187,5.9802809 22.85035,5.97113483 22.9868625,5.95949438 C23.1204437,5.94785393 23.2502562,5.91833708 23.377975,5.87510112 C23.501925,5.83477528 23.6116375,5.77033708 23.7004125,5.69217978 C23.7896062,5.61111236 23.8377625,5.50094382 23.8377625,5.36791011 C23.8377625,5.30679775 23.8226875,5.24526966 23.8063563,5.18457303 C23.786675,5.12179775 23.7355875,5.05985393 23.656025,4.99666292 C23.5773,4.93762921 23.4495813,4.8744382 23.2825,4.81332584 C23.109975,4.75055056 22.8700312,4.69110112 22.5589,4.62791011 C22.3470125,4.58716854 22.13345,4.53811236 21.9186313,4.48489888 C21.7033937,4.4304382 21.5095125,4.35519101 21.3395,4.25624719 C21.1673937,4.16104494 21.02795,4.03591011 20.9186562,3.88208989 C20.8093625,3.73117978 20.754925,3.5424382 20.754925,3.30464045 C20.754925,2.90969663 20.9153063,2.59 21.237325,2.34347191 C21.55725,2.09652809 22.0028,1.97430337 22.5693687,1.97430337 C22.7867,1.97430337 22.999425,1.99508989 23.2025187,2.035 C23.4039375,2.07906742 23.5902812,2.146 23.7540125,2.22706742 C23.9248625,2.30813483 24.0689125,2.40707865 24.1957938,2.52306742 C24.3235125,2.63905618 24.4127063,2.76710112 24.470075,2.90637079 L23.7368438,3.15622472 C23.6577,3.03441573 23.5207688,2.93214607 23.3294,2.85689888 C23.1296562,2.77832584 22.9064625,2.74132584 22.6556312,2.74132584 C22.3281687,2.74132584 22.0723125,2.79329213 21.8889,2.89764045 C21.7054875,3.00282022 21.6129438,3.13834831 21.6129438,3.30464045 C21.6129438,3.36201124 21.6213188,3.41480899 21.63765,3.45846067 C21.6539812,3.50419101 21.696275,3.5478427 21.7678813,3.59149438 C21.8390687,3.63805618 21.9500375,3.67879775 22.1012063,3.72452809 C22.2532125,3.77108989 22.4609125,3.82014607 22.724725,3.86961798 Z" id="Path"></path>
                                    <polygon id="Path" points="26.5843438 6.58059551 26.5843438 0.0839775281 27.4017438 0.0839775281 27.4017438 6.58059551"></polygon>
                                    <path d="M33.8915313,2.13976404 L33.8915313,6.58059551 L33.0615688,6.58059551 L33.0615688,6.06134831 C32.8593125,6.27586517 32.613925,6.44423596 32.3413188,6.56562921 C32.0620125,6.68452809 31.7647,6.74605618 31.4435188,6.74605618 C31.1202438,6.74605618 30.8191625,6.68494382 30.5348313,6.56022472 C30.258875,6.43841573 30.0134875,6.26713483 29.8020188,6.04929213 C29.5951563,5.83768539 29.4318438,5.58533708 29.310825,5.2951573 C29.1831063,5.00165169 29.1223875,4.6948427 29.1223875,4.36059551 C29.1223875,4.03591011 29.183525,3.72494382 29.310825,3.43767416 C29.4318438,3.14458427 29.5951563,2.89223596 29.8020188,2.67688764 C30.0134875,2.4598764 30.258875,2.29150562 30.5348313,2.16055056 C30.8191625,2.03541573 31.1194063,1.9747191 31.4435188,1.9747191 C31.7647,1.9747191 32.0620125,2.03375281 32.3413188,2.15514607 C32.6135063,2.27362921 32.8588938,2.44241573 33.0615688,2.65693258 L33.0615688,2.14101124 L33.8915313,2.14101124 L33.8915313,2.13976404 Z M31.5105188,5.9802809 C31.7224063,5.9802809 31.9225688,5.93704494 32.1131,5.84932584 C32.30405,5.76202247 32.4707125,5.64686517 32.6063875,5.50094382 C32.7525312,5.35834831 32.8614063,5.18748315 32.9443187,4.99001124 C33.0255562,4.79253933 33.0624063,4.58342697 33.0624063,4.36017978 C33.0624063,4.1398427 33.0255563,3.92782022 32.9443187,3.73034831 C32.8626625,3.53578652 32.7525312,3.36492135 32.6063875,3.21608989 C32.4707125,3.07141573 32.30405,2.95501124 32.1131,2.87103371 C31.9225687,2.78414607 31.7219875,2.74049438 31.5105188,2.74049438 C31.2982125,2.74049438 31.0955375,2.78414607 30.9075188,2.87103371 C30.7169875,2.95501124 30.5499062,3.071 30.4083688,3.21608989 C30.2685063,3.36450562 30.1537687,3.53620225 30.0687625,3.73034831 C29.9900375,3.92823596 29.9469062,4.13942697 29.9469062,4.36017978 C29.9469062,4.58342697 29.9900375,4.79295506 30.0687625,4.99001124 C30.15335,5.18789888 30.2685063,5.35876404 30.4083688,5.50094382 C30.550325,5.64644944 30.7169875,5.76202247 30.9075188,5.84932584 C31.0955375,5.93662921 31.2982125,5.9802809 31.5105188,5.9802809 Z" id="Shape" fill-rule="nonzero"></path>
                                    <path d="M38.1393313,6.64420225 C38.1171375,6.65251685 38.0656313,6.66457303 37.9818813,6.69034831 C37.9031563,6.71321348 37.793025,6.73108989 37.6669813,6.73940449 C37.545125,6.74813483 37.4052625,6.74273034 37.2545125,6.7161236 C37.102925,6.69242697 36.9542687,6.63505618 36.8156625,6.54276404 C36.3885375,6.26339326 36.1666,5.7445618 36.1666,4.97795506 L36.1666,2.90595506 L35.5765812,2.90595506 L35.5765812,2.13976404 L36.1666,2.13976404 L36.1666,0.0839775281 L36.9701812,0.0839775281 L36.9701812,2.13976404 L37.9362375,2.13976404 L37.9362375,2.90595506 L36.9701812,2.90595506 L36.9701812,4.97795506 C36.9701812,5.46602247 37.0669125,5.77283146 37.2566062,5.9008764 C37.3181625,5.94161798 37.3822313,5.96198876 37.4488125,5.96739326 C37.514975,5.97362921 37.5798812,5.97944944 37.635575,5.97362921 C37.6967125,5.97030337 37.7637125,5.95616854 37.8483,5.93247191 L38.1393313,6.64420225 Z" id="Path"></path>
                                    <path d="M39.9994187,4.57178652 C40.0258,4.76967416 40.0840062,4.95217978 40.1690125,5.12637079 C40.2565313,5.29723596 40.3654062,5.4485618 40.5019187,5.56995506 C40.6288,5.69550562 40.7803875,5.79403371 40.9533312,5.86637079 C41.1266937,5.94161798 41.3017312,5.97986517 41.4960312,5.97986517 C41.7958562,5.97986517 42.0646937,5.90960674 42.3012875,5.77324719 C42.5441625,5.64021348 42.7439062,5.4568764 42.8862812,5.22739326 L43.5646562,5.64644944 C43.3435562,5.9802809 43.0588062,6.24426966 42.69575,6.44465169 C42.3352063,6.64461798 41.9323687,6.74605618 41.4960312,6.74605618 C41.193275,6.74605618 40.9110375,6.69076404 40.64555,6.58142697 C40.3750375,6.46751685 40.1384437,6.31660674 39.9328375,6.12246067 C39.72765,5.92498876 39.5630812,5.69841573 39.427825,5.43525843 C39.2942437,5.16752809 39.2180312,4.88316854 39.1903937,4.57303371 C39.1903937,4.54393258 39.1903937,4.50942697 39.1845312,4.47159551 C39.1845312,4.43667416 39.1816,4.39634831 39.1816,4.36101124 C39.1816,4.16353933 39.2054687,3.97770787 39.2473437,3.80351685 C39.3084812,3.54576404 39.4056312,3.30464045 39.5471687,3.07848315 C39.6899625,2.85523596 39.853275,2.65776404 40.0538562,2.4981236 C40.25025,2.33266292 40.4721875,2.20461798 40.7205062,2.11149438 C40.9692438,2.02169663 41.230125,1.97513483 41.49645,1.97513483 C41.7690563,1.97513483 42.0286813,2.02169663 42.278675,2.11149438 C42.5236438,2.20461798 42.7439063,2.33224719 42.9415563,2.4981236 C43.1387875,2.65734831 43.3050313,2.85523596 43.4474063,3.07848315 C43.5897813,3.30505618 43.6902813,3.54576404 43.7480688,3.80351685 C43.792875,3.97770787 43.8175813,4.16395506 43.8175813,4.36101124 C43.8175813,4.39634831 43.8175813,4.43667416 43.8175813,4.47159551 C43.8175813,4.50901124 43.8113,4.54393258 43.8050188,4.57303371 L39.9994187,4.57178652 Z M42.9160125,3.80226966 C42.807975,3.48922472 42.6262375,3.2368764 42.3737313,3.03358427 C42.1199688,2.83860674 41.823075,2.74007865 41.4956125,2.74007865 C41.1689875,2.74007865 40.8771188,2.83860674 40.6233563,3.03358427 C40.3687562,3.23646067 40.1870188,3.48922472 40.077725,3.80226966 L42.9160125,3.80226966 Z" id="Shape" fill-rule="nonzero"></path>
                                </g>
                                <g>
                                    <path d="M8.60238125,9.45329213 C10.2032625,9.83617978 11.5047375,10.3005506 12.5059688,10.8464045 C13.5059438,11.3918427 14.2902625,11.9692921 14.8601813,12.5874831 C15.42675,13.2002697 15.8128375,13.8209551 16.013,14.4445506 C16.2131625,15.0718876 16.312825,15.6667978 16.312825,16.2330225 C16.312825,17.1014831 16.1021938,17.9129888 15.68135,18.6712809 C15.2588313,19.425 14.6859813,20.0868427 13.9602875,20.6534831 C13.2337562,21.2192921 12.3790875,21.666618 11.4004687,22.0004494 C10.4210125,22.3305393 9.3724625,22.4997416 8.25481875,22.4997416 C7.22301875,22.4997416 6.2444,22.3571461 5.31854375,22.0752809 C4.39059375,21.7942472 3.5752875,21.3993034 2.8676,20.894191 C2.1615875,20.3919888 1.5770125,19.799573 1.11513125,19.1235955 C0.6499,18.4505281 0.36640625,17.7155169 0.26088125,16.9302022 L2.88435,16.4138652 C3.1783125,17.3417753 3.80518125,18.1262584 4.76411875,18.7610787 C5.7226375,19.3963146 6.88634375,19.7131011 8.25398125,19.7131011 C8.95078125,19.7131011 9.60821875,19.6233034 10.2309,19.4432921 C10.8519062,19.2603708 11.3941875,19.0080225 11.857325,18.6862472 C12.3208812,18.3615618 12.6843562,17.9923933 12.9481687,17.5804045 C13.2098875,17.1655056 13.3422125,16.7185955 13.3422125,16.2334382 C13.3422125,14.3763708 11.5307,13.0148539 7.9085125,12.1472247 C7.043375,11.9476742 6.16944375,11.7148652 5.284625,11.4508764 C4.400225,11.1868876 3.60501875,10.841 2.89900625,10.4057303 C2.19425,9.97337079 1.61428125,9.42460674 1.16203125,8.75735955 C0.7076875,8.08969663 0.4815625,7.24202247 0.4815625,6.21433708 C0.4815625,5.3471236 0.66204375,4.54268539 1.01881875,3.80850562 C1.37643125,3.071 1.8827,2.44158427 2.5351125,1.91610112 C3.1883625,1.39061798 3.9772875,0.975719101 4.90565625,0.673483146 C5.8315125,0.372078652 6.85368125,0.220752809 7.97006875,0.220752809 C8.95915625,0.220752809 9.88794375,0.360022472 10.7514062,0.644797753 C11.6148687,0.926247191 12.373225,1.31537079 13.0268937,1.8088427 C13.67805,2.30189888 14.2115375,2.89098876 14.6231687,3.56447191 C15.0327062,4.24044944 15.2914937,4.98377528 15.3957625,5.79070787 L12.7722937,6.3365618 C12.5419812,5.36666292 12.0151937,4.5688764 11.194025,3.94195506 C10.3724375,3.31835955 9.2970875,3.00448315 7.9704875,3.00448315 C6.55888125,3.00448315 5.45756875,3.30962921 4.66948125,3.91326966 C3.8784625,4.51940449 3.4831625,5.28559551 3.4831625,6.21475281 C3.4831625,6.57768539 3.55141875,6.90569663 3.68793125,7.19546067 C3.8257,7.48896629 4.07736875,7.75877528 4.44838125,7.99989888 C4.8147875,8.24060674 5.33278125,8.47882022 5.99691875,8.71079775 C6.6606375,8.94526966 7.52703125,9.18888764 8.60238125,9.45329213 Z" id="Path"></path>
                                    <path d="M22.1569,3.27678652 C22.1569,3.74157303 21.9885625,4.13901124 21.6539813,4.4728427 C21.3164688,4.80625843 20.905675,4.97213483 20.4207625,4.97213483 C19.93585,4.97213483 19.5208688,4.80625843 19.1728875,4.4728427 C18.8240688,4.13942697 18.6515438,3.74157303 18.6515438,3.27678652 C18.6515438,2.81283146 18.8240688,2.42079775 19.1728875,2.09611236 C19.5208688,1.77350562 19.9362688,1.61386517 20.4207625,1.61386517 C20.9052563,1.61386517 21.3164688,1.77350562 21.6539813,2.09611236 C21.9885625,2.42079775 22.1569,2.81283146 22.1569,3.27678652 Z M21.7482,21.9534719 L19.0640125,21.9534719 L19.0640125,7.42411236 L21.7482,7.42411236 L21.7482,21.9534719 Z" id="Shape" fill-rule="nonzero"></path>
                                    <path d="M40.0756313,6.87867416 C41.1317188,6.80051685 42.0780938,6.93978652 42.9193625,7.3027191 C43.276975,7.46526966 43.6350063,7.67396629 43.9808938,7.92340449 C44.3259438,8.17575281 44.6345625,8.50376404 44.8954438,8.90702247 C45.1621875,9.31069663 45.3744938,9.7954382 45.5440875,10.3579213 C45.7132625,10.9237303 45.7986875,11.591809 45.7986875,12.3604944 L45.7986875,21.9526404 L43.1145,21.9526404 L43.1145,12.2968876 C43.1145,11.591809 43.00395,11.0430449 42.7996,10.6485169 C42.5864563,10.2539888 42.3268313,9.96380899 42.0232375,9.78338202 C41.7142,9.60337079 41.3871563,9.49320225 41.0236813,9.4528764 C40.6660688,9.41213483 40.3511688,9.38885393 40.0752125,9.38885393 C39.2364563,9.38885393 38.5178813,9.67279775 37.927025,10.2361124 C37.3399375,10.8019213 37.0430438,11.4899551 37.0430438,12.2968876 L37.0430438,12.3609101 L37.0430438,21.9530562 L34.3555063,21.9530562 L34.3555063,12.2968876 C34.3555063,11.591809 34.2558438,11.0434607 34.0401875,10.6485169 C33.83165,10.2539888 33.5778875,9.96380899 33.2675938,9.78379775 C32.9644188,9.60378652 32.6315125,9.49361798 32.2718063,9.45329213 C31.9167063,9.41255056 31.6018063,9.38968539 31.3254313,9.38968539 C30.4803938,9.38968539 29.7676813,9.67404494 29.1923188,10.2369438 C28.6081625,10.8027528 28.3234125,11.4907865 28.3234125,12.2973034 L28.3234125,21.9534719 L25.6061438,21.9534719 L25.6061438,7.4561236 L28.1965313,7.4561236 L28.3238313,7.4561236 L28.3238313,8.60603371 C28.5746625,8.22273034 28.9326938,7.88016854 29.4000188,7.5754382 C29.6085563,7.4328427 29.8237938,7.3081236 30.0448938,7.19504494 C30.265575,7.08737079 30.4925375,7.00962921 30.7270375,6.96888764 C30.9142188,6.91068539 31.11145,6.87908989 31.3266875,6.87908989 C31.9351313,6.83834831 32.5259875,6.86786517 33.096325,6.96888764 C33.5778875,7.07032584 34.0963,7.25366292 34.6444438,7.51432584 C35.1946813,7.77831461 35.6737313,8.20194382 36.0987625,8.78562921 C36.1402188,8.82637079 36.1712063,8.87875281 36.1921438,8.93695506 C36.2139188,9.0005618 36.24365,9.05003371 36.2859438,9.08786517 C36.4978313,8.78562921 36.7495,8.49877528 37.0438813,8.22855056 C37.340775,7.95583146 37.655675,7.72426966 37.9915125,7.53261798 C38.3277688,7.33805618 38.6765875,7.18382022 39.0342,7.06242697 C39.3934875,6.93978652 39.7389563,6.87867416 40.0756313,6.87867416 Z" id="Path"></path>
                                    <path d="M57.4922813,6.87867416 C58.5224063,6.87867416 59.501025,7.08196629 60.4281375,7.48522472 C61.3586,7.88889888 62.164275,8.44597753 62.8489313,9.15105618 C63.53275,9.85655056 64.0762875,10.6834382 64.4732625,11.6300562 C64.87275,12.5787528 65.078775,13.5977079 65.078775,14.689 C65.078775,15.7802921 64.87275,16.7955056 64.4732625,17.7479438 C64.0762875,18.6966404 63.53275,19.5243596 62.8489313,20.2294382 C62.164275,20.9349326 61.3581813,21.492427 60.4281375,21.8956854 C59.501025,22.2964494 58.5224063,22.4997416 57.4922813,22.4997416 C56.4382875,22.4997416 55.4571562,22.3018539 54.5514,21.9069101 C53.6456437,21.5148764 52.84625,20.9665281 52.1519625,20.2585393 L52.1519625,29.2208539 L49.4648438,29.2208539 L49.4648438,7.42452809 L52.1519625,7.42452809 L52.1519625,9.11946067 C52.84625,8.41147191 53.6456438,7.8631236 54.5514,7.46776404 C55.4571563,7.07614607 56.4382875,6.87867416 57.4922813,6.87867416 Z M57.2690875,19.9849888 C57.96505,19.9849888 58.6258375,19.8490449 59.2439125,19.579236 C59.8649188,19.3065169 60.4072,18.9261236 60.8736875,18.4422135 C61.3347313,17.9570562 61.6973688,17.3941573 61.96495,16.7468652 C62.2254125,16.1028989 62.3577375,15.4148652 62.3577375,14.689 C62.3577375,13.9627191 62.2254125,13.2751011 61.96495,12.6282247 C61.69695,11.9838427 61.3343125,11.4205281 60.8736875,10.9332921 C60.4076188,10.4514607 59.8645,10.0739775 59.2439125,9.80125843 C58.6258375,9.52853933 57.96505,9.38926966 57.2690875,9.38926966 C56.5748,9.38926966 55.9173625,9.52853933 55.293425,9.80125843 C54.67535,10.0735618 54.1330688,10.4510449 53.667,10.9332921 C53.2088875,11.4209438 52.8366188,11.9842584 52.5602438,12.6282247 C52.2880563,13.2746854 52.151125,13.9627191 52.151125,14.689 C52.151125,15.4148652 52.2876375,16.1028989 52.5602438,16.7468652 C52.8362,17.3941573 53.2088875,17.9570562 53.667,18.4422135 C54.1330688,18.9261236 54.67535,19.3065169 55.293425,19.579236 C55.9173625,19.8490449 56.5748,19.9849888 57.2690875,19.9849888 Z" id="Shape" fill-rule="nonzero"></path>
                                    <polygon id="Path" points="68.0724188 21.9534719 68.0724188 0.702168539 70.7566063 0.702168539 70.7566063 21.9530562 68.0724188 21.9530562"></polygon>
                                    <polygon id="Path" points="88.1276125 7.42452809 77.9817188 29.9180337 75.6459313 28.7976404 78.8393188 21.6807528 72.4232313 7.42452809 75.2678 7.42452809 80.257625 18.5029101 85.2508 7.42452809"></polygon>
                                </g>
                            </g>
                        </g>
                    </g>
                </g>
            </g>
        </g>
    </g>
</svg>